<svg xmlns="http://www.w3.org/2000/svg" fill="none" viewBox="0 0 1841 631">
  <mask id="a" width="333" height="368" x="-1" y="148" fill="#000" maskUnits="userSpaceOnUse">
    <path fill="#fff" d="M-1 148h333v368H-1z"/>
    <path d="M124.815 152.09c18.568-.432 24.722.54 40.483 6.154 3.022 1.079 9.824 2.591 15.114 3.239 46.852 5.829 76.432 17.812 96.187 38.863 10.256 10.796 16.41 19.972 22.131 32.927 2.591 5.937 7.017 14.681 9.932 19.431 16.301 26.557 21.052 44.046 19.864 71.898-1.403 30.983-11.767 64.557-26.665 86.796-1.619 2.375-5.074 8.421-7.556 13.495-5.074 10.039-7.558 13.494-18.785 26.448-20.511 23.534-33.466 34.223-53.437 44.154-10.904 5.398-20.62 8.204-42.751 11.983-8.852 1.511-17.921 3.238-19.972 3.778-4.103 1.188-28.608 2.16-37.244 1.512-29.04-2.159-54.086-10.579-70.927-23.966-8.744-7.017-19.107-17.812-22.994-23.966-2.59-4.21-9.176-16.949-13.926-26.989-8.312-17.92-12.091-46.96-11.12-84.744.756-28.068 3.78-49.552 10.689-74.489 1.727-6.477 3.993-15.222 4.857-19.432 6.585-30.551 12.74-48.364 21.268-60.347 4.75-6.801 18.244-21.16 23.534-25.154 11.443-8.42 27.42-16.84 37.244-19.539 4.102-1.08 12.307-1.836 24.074-2.052ZM33.809 427.7c-3.13-4.75-5.72-7.772-5.937-6.91-1.08 5.722 14.25 36.381 22.994 46.097 12.091 13.279 27.96 22.994 45.018 27.528 10.579 2.915 11.442 1.512 2.266-3.67-5.613-3.238-15.33-11.983-46.528-42.534-7.449-7.233-14.466-15.33-17.813-20.511Zm97.483 60.455c-.001-.864-23.966-8.313-24.613-7.773-.216.324.432.971 1.511 1.295 1.08.432 2.807 1.404 3.67 2.159.864.756 4.103 2.052 7.018 2.915 5.074 1.62 12.414 2.375 12.414 1.404Zm26.666-303.572c-12.523.648-33.79 4.534-45.018 8.313-15.005 4.858-27.42 13.062-41.67 27.312-19.109 19.216-24.29 27.745-29.904 49.336-8.312 31.739-9.716 84.637-2.915 111.086 4.426 17.489 7.45 22.239 26.99 43.182 31.198 33.358 36.272 38.108 45.88 42.858 9.608 4.858 22.239 9.284 32.926 11.551 10.04 2.159 23.426 2.051 38.324-.432 17.057-2.806 20.512-3.886 22.455-6.909.972-1.403 3.023-2.914 4.642-3.238 1.619-.432 4.318-1.728 5.937-2.915 1.62-1.08 3.455-2.052 4.103-2.052 2.915 0 13.171-7.017 16.949-11.659 5.938-7.017 12.954-19.108 14.898-25.585 7.017-23.534 10.795-52.358 10.795-83.125.108-21.483-.108-24.614-2.375-32.927-7.988-29.579-24.506-68.335-35.626-83.449-6.369-8.636-23.749-22.347-46.419-36.812l-8.313-5.291-11.659.756ZM311.577 309.92c-1.08-4.426-1.835-2.159-3.238 9.716-1.188 10.148-2.699 17.489-6.369 30.228-2.483 8.42-2.916 16.841-1.081 20.187 1.62 3.023 2.16 1.943 5.722-11.227 5.074-18.892 7.233-39.619 4.966-48.904ZM205.241 187.5l3.238 2.591c1.836 1.404 7.018 5.505 11.552 9.176 4.642 3.562 11.335 10.04 14.789 14.358 14.358 17.489 33.575 60.455 41.024 91.654 3.454 14.682 4.426 25.909 3.886 44.477l-.54 17.381 2.267-6.477c6.909-20.188 11.767-43.183 11.767-56.137 0-16.301-5.829-45.017-11.659-58.079-5.721-12.523-24.397-34.87-35.409-42.427-13.389-9.139-29.813-16.395-37.325-16.517h-3.59Zm-98.887-13.063c10.58-3.671 12.199-4.859 5.506-3.995-4.642.647-17.272 5.505-17.273 6.693 0 1.08 2.915.433 11.767-2.698Z"/>
  </mask>
  <path fill="#fff" d="M124.815 152.09c18.568-.432 24.722.54 40.483 6.154 3.022 1.079 9.824 2.591 15.114 3.239 46.852 5.829 76.432 17.812 96.187 38.863 10.256 10.796 16.41 19.972 22.131 32.927 2.591 5.937 7.017 14.681 9.932 19.431 16.301 26.557 21.052 44.046 19.864 71.898-1.403 30.983-11.767 64.557-26.665 86.796-1.619 2.375-5.074 8.421-7.556 13.495-5.074 10.039-7.558 13.494-18.785 26.448-20.511 23.534-33.466 34.223-53.437 44.154-10.904 5.398-20.62 8.204-42.751 11.983-8.852 1.511-17.921 3.238-19.972 3.778-4.103 1.188-28.608 2.16-37.244 1.512-29.04-2.159-54.086-10.579-70.927-23.966-8.744-7.017-19.107-17.812-22.994-23.966-2.59-4.21-9.176-16.949-13.926-26.989-8.312-17.92-12.091-46.96-11.12-84.744.756-28.068 3.78-49.552 10.689-74.489 1.727-6.477 3.993-15.222 4.857-19.432 6.585-30.551 12.74-48.364 21.268-60.347 4.75-6.801 18.244-21.16 23.534-25.154 11.443-8.42 27.42-16.84 37.244-19.539 4.102-1.08 12.307-1.836 24.074-2.052ZM33.809 427.7c-3.13-4.75-5.72-7.772-5.937-6.91-1.08 5.722 14.25 36.381 22.994 46.097 12.091 13.279 27.96 22.994 45.018 27.528 10.579 2.915 11.442 1.512 2.266-3.67-5.613-3.238-15.33-11.983-46.528-42.534-7.449-7.233-14.466-15.33-17.813-20.511Zm97.483 60.455c-.001-.864-23.966-8.313-24.613-7.773-.216.324.432.971 1.511 1.295 1.08.432 2.807 1.404 3.67 2.159.864.756 4.103 2.052 7.018 2.915 5.074 1.62 12.414 2.375 12.414 1.404Zm26.666-303.572c-12.523.648-33.79 4.534-45.018 8.313-15.005 4.858-27.42 13.062-41.67 27.312-19.109 19.216-24.29 27.745-29.904 49.336-8.312 31.739-9.716 84.637-2.915 111.086 4.426 17.489 7.45 22.239 26.99 43.182 31.198 33.358 36.272 38.108 45.88 42.858 9.608 4.858 22.239 9.284 32.926 11.551 10.04 2.159 23.426 2.051 38.324-.432 17.057-2.806 20.512-3.886 22.455-6.909.972-1.403 3.023-2.914 4.642-3.238 1.619-.432 4.318-1.728 5.937-2.915 1.62-1.08 3.455-2.052 4.103-2.052 2.915 0 13.171-7.017 16.949-11.659 5.938-7.017 12.954-19.108 14.898-25.585 7.017-23.534 10.795-52.358 10.795-83.125.108-21.483-.108-24.614-2.375-32.927-7.988-29.579-24.506-68.335-35.626-83.449-6.369-8.636-23.749-22.347-46.419-36.812l-8.313-5.291-11.659.756ZM311.577 309.92c-1.08-4.426-1.835-2.159-3.238 9.716-1.188 10.148-2.699 17.489-6.369 30.228-2.483 8.42-2.916 16.841-1.081 20.187 1.62 3.023 2.16 1.943 5.722-11.227 5.074-18.892 7.233-39.619 4.966-48.904ZM205.241 187.5l3.238 2.591c1.836 1.404 7.018 5.505 11.552 9.176 4.642 3.562 11.335 10.04 14.789 14.358 14.358 17.489 33.575 60.455 41.024 91.654 3.454 14.682 4.426 25.909 3.886 44.477l-.54 17.381 2.267-6.477c6.909-20.188 11.767-43.183 11.767-56.137 0-16.301-5.829-45.017-11.659-58.079-5.721-12.523-24.397-34.87-35.409-42.427-13.389-9.139-29.813-16.395-37.325-16.517h-3.59Zm-98.887-13.063c10.58-3.671 12.199-4.859 5.506-3.995-4.642.647-17.272 5.505-17.273 6.693 0 1.08 2.915.433 11.767-2.698Z"/>
  <path fill="#fff" d="m124.815 152.09.055 3h.008l.007-.001-.07-2.999Zm40.483 6.154 1.009-2.826-.003-.001-1.006 2.827Zm15.114 3.239.37-2.977-.005-.001-.365 2.978Zm96.187 38.863-2.187 2.053.006.007.006.006 2.175-2.066Zm22.131 32.927 2.75-1.2-.005-.012-2.745 1.212Zm9.932 19.431-2.557 1.569v.001l2.557-1.57Zm19.864 71.898 2.997.136v-.008l-2.997-.128Zm-26.665 86.796 2.479 1.69.007-.01.007-.011-2.493-1.669Zm-7.556 13.495 2.677 1.353.009-.017.008-.017-2.694-1.319Zm-18.785 26.448 2.262 1.971.005-.006-2.267-1.965Zm-53.437 44.154 1.331 2.689.005-.002-1.336-2.687Zm-42.751 11.983-.505-2.957.505 2.957Zm-19.972 3.778-.763-2.901-.036.009-.035.01.834 2.882Zm-37.244 1.512.224-2.992h-.002l-.222 2.992Zm-70.927-23.966-1.877 2.34.01.009 1.867-2.349Zm-22.994-23.966-2.555 1.573.01.014.009.015 2.536-1.602ZM14.27 437.847l-2.721 1.262.005.011.005.01 2.711-1.283ZM3.15 353.103l-2.999-.081v.004l3 .077Zm10.689-74.489 2.89.801.005-.014.003-.014-2.898-.773Zm4.857-19.432-2.933-.632-.003.014-.003.015 2.94.603Zm21.268-60.347 2.444 1.74.008-.011.007-.011-2.46-1.718Zm23.534-25.154-1.778-2.416-.015.011-.015.011 1.808 2.394Zm37.244-19.539-.763-2.901-.016.004-.016.004.795 2.893ZM33.809 427.7l2.52-1.628-.007-.012-.008-.011-2.505 1.651Zm-5.937-6.91-2.91-.729-.022.086-.016.087 2.948.556Zm22.994 46.097-2.23 2.007.006.006.006.007 2.218-2.02Zm45.018 27.528.796-2.892-.013-.003-.013-.004-.77 2.899Zm2.266-3.67-1.499 2.599.012.007.012.007 1.475-2.613Zm-46.528-42.534 2.099-2.143-.01-.009-2.09 2.152Zm79.67 39.944h3v-.004l-3 .004Zm-24.613-7.773-1.921-2.304-.335.279-.242.363 2.498 1.662Zm1.511 1.295 1.115-2.785-.125-.05-.128-.038-.862 2.873Zm3.67 2.159 1.976-2.257v-.001l-1.976 2.258Zm7.018 2.915.912-2.858-.03-.009-.03-.009-.852 2.876Zm39.08-302.168.155 2.996.019-.001.02-.001-.194-2.994Zm-45.018 8.313.924 2.854.017-.005.016-.006-.957-2.843Zm-41.67 27.312-2.122-2.121-.006.006 2.127 2.115Zm-29.904 49.336 2.902.76.002-.005-2.904-.755ZM38.451 380.63l2.908-.736-.003-.011-2.905.747Zm26.99 43.182-2.194 2.046.002.003 2.191-2.049Zm45.88 42.858 1.354-2.677-.012-.006-.012-.006-1.33 2.689Zm32.926 11.551.631-2.933-.009-.002-.622 2.935Zm38.324-.432-.487-2.96-.006.001.493 2.959Zm22.455-6.909-2.466-1.707-.03.042-.027.043 2.523 1.622Zm4.642-3.238.588 2.942.093-.019.092-.024-.773-2.899Zm5.937-2.915-1.664-2.496-.056.037-.054.04 1.774 2.419Zm4.103-2.052v3-3Zm16.949-11.659-2.29-1.938-.019.022-.018.022 2.327 1.894Zm14.898-25.585 2.873.862.001-.005-2.874-.857Zm10.795-83.125-3-.015v.015h3Zm-2.375-32.927-2.896.782.002.008 2.894-.79Zm-35.626-83.449 2.417-1.778-.002-.003-2.415 1.781Zm-46.419-36.812 1.613-2.529-.003-.002-1.61 2.531Zm-8.313-5.291 1.611-2.53-.827-.527-.978.064.194 2.993Zm141.96 126.093-2.915.711.001.001 2.914-.712Zm-3.238 9.716-2.98-.352v.003l2.98.349Zm-6.369 30.228 2.877.848.003-.009.002-.009-2.882-.83Zm-1.081 20.187 2.645-1.417-.007-.013-.007-.012-2.631 1.442Zm5.722-11.227 2.896.783.001-.005-2.897-.778ZM205.241 187.5v-3h-8.552l6.678 5.343 1.874-2.343Zm3.238 2.591-1.874 2.343.026.02.026.02 1.822-2.383Zm11.552 9.176-1.888 2.332.031.024.031.024 1.826-2.38Zm14.789 14.358-2.342 1.874.011.015.012.015 2.319-1.904Zm41.024 91.654 2.92-.687-.002-.01-2.918.697Zm3.886 44.477 2.999.093v-.006l-2.999-.087Zm-.54 17.381-2.998-.093 5.83 1.084-2.832-.991Zm2.267-6.477 2.832.99.003-.009.003-.01-2.838-.971Zm11.767-56.137h3-3Zm-11.659-58.079 2.74-1.223-.006-.012-.005-.012-2.729 1.247Zm-35.409-42.427 1.698-2.474-.007-.004-1.691 2.478ZM208.831 187.5l.049-2.999-.025-.001h-.024v3Zm-102.477-13.063-.983-2.834-.008.003-.009.003 1 2.828Zm5.506-3.995-.384-2.976-.015.002-.015.003.414 2.971Zm-17.273 6.693-3-.003v.003h3Zm30.228-25.045.07 2.999c9.249-.215 15.213-.073 20.771.776 5.543.847 10.807 2.416 18.635 5.205l1.007-2.826 1.006-2.827c-7.932-2.825-13.626-4.548-19.742-5.483-6.101-.932-12.498-1.06-21.816-.843l.069 2.999Zm40.483 6.154-1.009 2.825c3.297 1.177 10.331 2.727 15.758 3.392l.365-2.978.365-2.978c-5.153-.631-11.722-2.105-14.47-3.087l-1.009 2.826Zm15.114 3.239-.37 2.977c46.564 5.794 75.314 17.634 94.37 37.939l2.187-2.053 2.188-2.053c-20.456-21.797-50.864-33.922-98.005-39.787l-.37 2.977Zm96.187 38.863-2.175 2.066c10.029 10.557 15.986 19.447 21.562 32.073l2.744-1.212 2.745-1.212c-5.867-13.284-12.218-22.747-22.701-33.781l-2.175 2.066Zm22.131 32.927-2.749 1.2c2.63 6.027 7.118 14.901 10.124 19.8l2.557-1.569 2.557-1.569c-2.823-4.6-7.187-13.214-9.739-19.062l-2.75 1.2Zm9.932 19.431-2.557 1.57c8.068 13.144 13.18 23.888 16.155 34.69 2.97 10.786 3.854 21.791 3.269 35.51l2.997.128 2.997.128c.603-14.133-.295-25.798-3.478-37.359-3.179-11.544-8.593-22.824-16.826-36.236l-2.557 1.569Zm19.864 71.898-2.997-.136c-1.382 30.518-11.611 63.543-26.16 85.262l2.492 1.67 2.493 1.669c15.246-22.758 25.745-56.881 27.169-88.329l-2.997-.136Zm-26.665 86.796-2.479-1.69c-1.727 2.534-5.252 8.717-7.772 13.866l2.695 1.319 2.694 1.319c2.446-4.999 5.83-10.909 7.341-13.124l-2.479-1.69Zm-7.556 13.495-2.678-1.353c-4.919 9.732-7.228 12.976-18.374 25.836l2.267 1.965 2.267 1.965c11.309-13.049 13.966-16.713 19.195-27.06l-2.677-1.353Zm-18.785 26.448-2.261-1.971c-20.348 23.346-33.003 33.737-52.512 43.439l1.336 2.686 1.336 2.687c20.433-10.162 33.688-21.148 54.363-44.87l-2.262-1.971Zm-53.437 44.154-1.331-2.688c-10.519 5.207-19.902 7.954-41.925 11.714l.505 2.957.505 2.957c22.238-3.797 32.288-6.663 43.577-12.251l-1.331-2.689Zm-42.751 11.983-.505-2.957c-8.807 1.503-18.023 3.253-20.23 3.834l.763 2.901.764 2.901c1.895-.498 10.816-2.203 19.713-3.722l-.505-2.957Zm-19.972 3.778-.834-2.882c-.682.198-2.663.466-5.748.721-2.955.243-6.629.454-10.461.608-7.711.31-15.846.383-19.977.073l-.224 2.992-.224 2.992c4.505.337 12.941.249 20.667-.062 3.886-.156 7.648-.371 10.712-.624 2.934-.241 5.554-.54 6.923-.936l-.834-2.882Zm-37.244 1.512.222-2.992c-28.652-2.13-53.056-10.424-69.282-23.322l-1.867 2.348-1.866 2.349c17.455 13.875 43.144 22.421 72.571 24.609l.222-2.992Zm-70.927-23.966 1.878-2.34c-8.61-6.91-18.696-17.465-22.335-23.228l-2.537 1.602-2.536 1.602c4.133 6.544 14.775 17.58 23.653 24.704l1.877-2.34Zm-22.994-23.966 2.555-1.572c-2.499-4.061-9.025-16.673-13.769-26.7l-2.712 1.283-2.711 1.283c4.756 10.052 11.4 22.919 14.082 27.279l2.555-1.573ZM14.27 437.847l2.722-1.262C8.98 419.316 5.18 390.854 6.148 353.18l-2.999-.077-2.999-.077c-.974 37.894 2.783 67.512 11.398 86.083l2.721-1.262ZM3.15 353.103l3 .081c.749-27.853 3.743-49.092 10.58-73.769l-2.891-.801-2.891-.801C3.965 303.01.912 324.738.15 353.022l3 .081Zm10.689-74.489 2.898.773c1.721-6.454 4.013-15.289 4.898-19.602l-2.939-.603-2.939-.603c-.842 4.108-3.083 12.761-4.817 19.262l2.899.773Zm4.857-19.432 2.933.632c6.579-30.523 12.636-47.798 20.779-59.239l-2.444-1.74-2.444-1.739c-8.915 12.525-15.165 30.874-21.756 61.454l2.932.632Zm21.268-60.347 2.46 1.718c2.245-3.216 6.684-8.377 11.293-13.296 4.632-4.943 9.172-9.357 11.589-11.182l-1.808-2.394-1.808-2.394c-2.873 2.169-7.725 6.932-12.35 11.867-4.648 4.96-9.332 10.379-11.836 13.964l2.46 1.717Zm23.534-25.154 1.778 2.416c11.263-8.287 26.907-16.493 36.261-19.062l-.795-2.893-.795-2.893c-10.294 2.828-26.604 11.463-38.227 20.016l1.778 2.416Zm37.244-19.539.764 2.901c3.714-.977 11.588-1.737 23.365-1.953l-.055-3-.055-2.999c-11.757.215-20.292.968-24.782 2.15l.763 2.901ZM33.809 427.7l2.505-1.651c-1.6-2.428-3.108-4.487-4.29-5.863-.556-.647-1.184-1.316-1.8-1.767-.213-.157-.911-.668-1.877-.761a3.17 3.17 0 0 0-2.226.629 3.2 3.2 0 0 0-1.159 1.774l2.91.729 2.91.73a2.837 2.837 0 0 1-3.007 2.111 2.513 2.513 0 0 1-.879-.244c-.134-.067-.21-.124-.22-.13-.013-.01.055.041.218.204.151.153.344.362.578.634.95 1.107 2.302 2.934 3.832 5.255l2.505-1.65Zm-5.937-6.91-2.948-.556c-.261 1.385.006 3.028.348 4.473.372 1.569.961 3.4 1.695 5.377 1.471 3.964 3.609 8.739 6.034 13.597 4.807 9.628 10.974 20.034 15.635 25.213l2.23-2.007 2.23-2.007c-4.084-4.537-9.953-14.319-14.727-23.879-2.365-4.737-4.404-9.306-5.777-13.005-.688-1.853-1.188-3.432-1.482-4.672a11.884 11.884 0 0 1-.27-1.484c-.04-.396-.013-.532-.02-.493l-2.948-.557Zm22.994 46.097-2.218 2.02c12.47 13.695 28.84 23.722 46.465 28.408l.77-2.9.771-2.899c-16.488-4.383-31.858-13.787-43.57-26.649l-2.218 2.02Zm45.018 27.528-.797 2.893c2.685.739 4.872 1.239 6.493 1.464.792.11 1.597.176 2.318.121a4.814 4.814 0 0 0 1.323-.279c.48-.181 1.235-.576 1.757-1.422a3.35 3.35 0 0 0 .384-2.604 4.11 4.11 0 0 0-.701-1.428c-.454-.61-1.074-1.153-1.661-1.61-1.223-.955-3.046-2.102-5.375-3.417l-1.475 2.612-1.475 2.613c2.26 1.275 3.77 2.247 4.634 2.922.458.357.571.506.54.464a1.908 1.908 0 0 1-.299-.669 2.57 2.57 0 0 1-.063-.912c.042-.385.169-.771.385-1.122a2.52 2.52 0 0 1 1.232-1.041c.239-.09.385-.094.337-.09-.091.007-.405.006-1.038-.081-1.23-.171-3.118-.588-5.723-1.306l-.796 2.892Zm2.266-3.67 1.5-2.598c-2.498-1.441-6.12-4.235-13.148-10.643-6.987-6.37-17.181-16.16-32.781-31.436l-2.1 2.143-2.098 2.144c15.599 15.275 25.862 25.133 32.936 31.582 7.033 6.412 11.075 9.609 14.192 11.407l1.5-2.599Zm-46.528-42.534 2.09-2.152c-7.377-7.163-14.213-15.079-17.383-19.987l-2.52 1.628-2.52 1.627c3.524 5.456 10.722 13.734 18.243 21.037l2.09-2.153Zm79.67 39.944 3-.004a3.084 3.084 0 0 0-.551-1.75 3.301 3.301 0 0 0-.551-.611 4.26 4.26 0 0 0-.663-.466c-.327-.19-.711-.369-1.071-.525-.747-.325-1.758-.71-2.904-1.122-2.311-.831-5.37-1.84-8.427-2.798-3.059-.958-6.154-1.877-8.54-2.526a61.177 61.177 0 0 0-3.034-.761 13.235 13.235 0 0 0-1.135-.2 4.656 4.656 0 0 0-.69-.036 3.354 3.354 0 0 0-.631.074 3.091 3.091 0 0 0-1.337.648l1.921 2.304 1.92 2.305a2.904 2.904 0 0 1-1.242.609c-.226.048-.4.056-.471.057-.147.004-.225-.008-.179-.003.073.009.257.039.587.109.637.137 1.564.37 2.716.683 2.289.623 5.307 1.519 8.321 2.463 3.015.944 5.988 1.926 8.191 2.718 1.11.399 1.977.733 2.543.979.138.06.246.11.329.149l.094.047.03.016a.853.853 0 0 1-.06-.037 2.398 2.398 0 0 1-.202-.157 2.75 2.75 0 0 1-.448-.503 2.92 2.92 0 0 1-.516-1.659l3-.003Zm-24.613-7.773-2.498-1.662c-.792 1.19-.567 2.43-.27 3.129a4.034 4.034 0 0 0 1.032 1.411c.666.599 1.516 1.03 2.385 1.291l.862-2.874.862-2.873c-.21-.064-.223-.118-.097-.005.047.043.292.265.478.703a2.707 2.707 0 0 1-.257 2.542l-2.497-1.662Zm1.511 1.295-1.114 2.786c.861.344 2.268 1.158 2.809 1.631l1.975-2.258 1.976-2.258c-1.187-1.038-3.234-2.167-4.531-2.686l-1.115 2.785Zm3.67 2.159-1.975 2.258c.507.444 1.146.803 1.658 1.065.568.291 1.227.586 1.917.87a49.958 49.958 0 0 0 4.565 1.599l.853-2.877.852-2.876a43.617 43.617 0 0 1-3.991-1.397 19.584 19.584 0 0 1-1.459-.659c-.43-.22-.519-.306-.444-.24l-1.976 2.257Zm7.018 2.915-.912 2.858c2.762.882 6.067 1.51 8.696 1.798 1.302.142 2.561.215 3.562.162.466-.025 1.088-.085 1.678-.279a3.69 3.69 0 0 0 1.266-.702 3.21 3.21 0 0 0 1.124-2.433h-6c0-1.019.526-1.738.957-2.11.368-.317.705-.43.782-.456.169-.055.178-.028-.123-.012-.534.028-1.428-.007-2.595-.135-2.309-.252-5.211-.811-7.523-1.549l-.912 2.858Zm39.08-302.168-.155-2.996c-12.771.661-34.31 4.592-45.82 8.466l.957 2.843.957 2.843c10.945-3.683 31.941-7.525 44.216-8.16l-.155-2.996Zm-45.018 8.313-.924-2.854c-15.573 5.041-28.381 13.558-42.868 28.045l2.121 2.121 2.122 2.122c14.013-14.013 26.035-21.906 40.473-26.58l-.924-2.854Zm-41.67 27.312-2.128-2.115c-9.588 9.642-15.871 16.786-20.45 24.337-4.603 7.592-7.39 15.441-10.23 26.359l2.904.755 2.904.755c2.774-10.672 5.384-17.883 9.553-24.758 4.192-6.914 10.054-13.644 19.574-23.217l-2.128-2.116Zm-29.904 49.336-2.902-.76c-4.234 16.165-6.678 37.569-7.222 58.208-.543 20.607.801 40.765 4.303 54.385l2.906-.747 2.905-.747c-3.298-12.829-4.653-32.344-4.116-52.733.536-20.357 2.95-41.271 7.028-56.846l-2.902-.76ZM38.451 380.63l-2.908.736c2.238 8.845 4.192 14.763 8.192 21.152 3.93 6.275 9.773 12.902 19.512 23.34l2.193-2.046 2.194-2.047c-9.8-10.504-15.24-16.724-18.813-22.432-3.503-5.594-5.274-10.795-7.462-19.439l-2.908.736Zm26.99 43.182-2.192 2.049c31.037 33.185 36.529 38.449 46.743 43.499l1.329-2.69 1.33-2.689c-9.003-4.451-13.659-8.687-45.02-42.218l-2.19 2.049Zm45.88 42.858-1.354 2.678c9.844 4.977 22.721 9.488 33.657 11.808l.623-2.935.622-2.935c-10.438-2.214-22.823-6.554-32.194-11.293l-1.354 2.677Zm32.926 11.551-.631 2.933c10.532 2.265 24.325 2.115 39.448-.405l-.493-2.96-.493-2.959c-14.672 2.446-27.653 2.511-37.2.458l-.631 2.933Zm38.324-.432.487 2.961c8.481-1.396 13.822-2.397 17.292-3.467 3.623-1.118 5.708-2.46 7.2-4.78l-2.524-1.623-2.523-1.622c-.451.702-1.066 1.411-3.921 2.291-3.006.927-7.922 1.869-16.498 3.28l.487 2.96Zm22.455-6.909 2.467 1.708c.243-.351.724-.843 1.347-1.285.642-.455 1.167-.67 1.416-.719l-.588-2.942-.589-2.942c-1.37.274-2.68.978-3.711 1.71-1.05.745-2.08 1.71-2.808 2.763l2.466 1.707Zm4.642-3.238.773 2.899c2.007-.536 5.041-2.004 6.938-3.395l-1.774-2.419-1.774-2.419c-1.341.984-3.705 2.107-4.936 2.435l.773 2.899Zm5.937-2.915 1.664 2.496a22.011 22.011 0 0 1 2.113-1.253c.313-.16.545-.262.691-.317.073-.027.091-.029.063-.023-.007.002-.17.045-.428.045v-6c-.737 0-1.404.234-1.739.359-.43.162-.88.37-1.309.589a28.012 28.012 0 0 0-2.719 1.608l1.664 2.496Zm4.103-2.052v3c.875 0 1.735-.243 2.412-.483a19.515 19.515 0 0 0 2.299-1.014c1.578-.806 3.365-1.902 5.137-3.118 3.49-2.396 7.272-5.501 9.428-8.15l-2.327-1.894-2.327-1.894c-1.622 1.993-4.857 4.717-8.169 6.991-1.629 1.118-3.188 2.066-4.471 2.721-.643.329-1.171.56-1.574.703-.457.162-.554.138-.408.138v3Zm16.949-11.659 2.29 1.938c3.115-3.681 6.452-8.614 9.25-13.425 2.777-4.775 5.158-9.658 6.231-13.236l-2.873-.862-2.874-.862c-.87 2.899-2.97 7.3-5.671 11.944-2.68 4.608-5.82 9.229-8.643 12.565l2.29 1.938Zm14.898-25.585 2.874.857c7.117-23.869 10.921-52.99 10.921-83.982h-6c0 30.542-3.753 59.068-10.67 82.268l2.875.857Zm10.795-83.125 3 .015c.108-21.466-.093-24.977-2.48-33.731l-2.895.789-2.894.79c2.147 7.87 2.377 10.622 2.269 32.122l3 .015Zm-2.375-32.927 2.897-.782c-4.038-14.95-10.215-32.168-16.776-47.544-6.537-15.32-13.556-29.052-19.33-36.901l-2.417 1.778-2.416 1.778c5.345 7.265 12.145 20.468 18.644 35.699 6.475 15.175 12.551 32.125 16.502 46.754l2.896-.782Zm-35.626-83.449 2.415-1.781c-3.432-4.652-9.63-10.441-17.649-16.791-8.074-6.394-18.174-13.497-29.572-20.769l-1.613 2.529-1.614 2.529c11.272 7.192 21.197 14.177 29.074 20.415 7.931 6.28 13.607 11.665 16.545 15.649l2.414-1.781Zm-46.419-36.812 1.61-2.531-8.312-5.29-1.611 2.53-1.611 2.531 8.313 5.29 1.611-2.53Zm-8.313-5.291-.194-2.993-11.659.756.194 2.993.194 2.994 11.659-.756-.194-2.994Zm141.96 126.093 2.915-.711a15.216 15.216 0 0 0-.497-1.681c-.133-.355-.457-1.198-1.154-1.837a3.249 3.249 0 0 0-2.339-.868c-1.1.048-1.839.627-2.208 1.007-.636.656-.928 1.488-1.061 1.887-.336 1.009-.627 2.489-.912 4.303-.294 1.87-.609 4.282-.962 7.264l2.98.352 2.979.352c.349-2.956.654-5.28.931-7.036.285-1.813.514-2.85.676-3.338.117-.351.069-.012-.323.393a2.736 2.736 0 0 1-1.843.811 2.75 2.75 0 0 1-1.974-.706c-.452-.415-.53-.802-.409-.48.066.177.163.495.286.999l2.915-.711Zm-3.238 9.716-2.98-.349c-1.165 9.954-2.638 17.132-6.272 29.746l2.883.831 2.882.83c3.707-12.863 5.256-20.367 6.466-30.709l-2.979-.349Zm-6.369 30.228-2.878-.849c-1.3 4.409-2.075 8.851-2.278 12.687-.193 3.664.099 7.337 1.445 9.792l2.63-1.443 2.631-1.442c-.489-.892-.898-3.103-.714-6.591.175-3.316.858-7.294 2.041-11.306l-2.877-.848Zm-1.081 20.187-2.644 1.417c.221.412.494.892.815 1.316.262.347.875 1.104 1.906 1.469 1.392.491 2.653.008 3.448-.667.635-.54 1.034-1.229 1.281-1.716.527-1.034 1.044-2.545 1.618-4.442.592-1.954 1.304-4.531 2.194-7.821l-2.896-.783-2.896-.784c-.891 3.295-1.582 5.792-2.144 7.65-.58 1.915-.967 2.955-1.223 3.459-.144.283-.107.109.182-.136a2.52 2.52 0 0 1 2.435-.418c.697.247.975.695.883.574a5.038 5.038 0 0 1-.314-.535l-2.645 1.417Zm5.722-11.227 2.897.778c2.578-9.596 4.416-19.659 5.323-28.528.898-8.769.922-16.7-.34-21.865l-2.914.711-2.914.712c1.005 4.119 1.083 11.193.199 19.832-.873 8.539-2.652 18.285-5.148 27.581l2.897.779ZM205.241 187.5l-1.874 2.343 3.238 2.591 1.874-2.343 1.875-2.342-3.239-2.591-1.874 2.342Zm3.238 2.591-1.822 2.383c1.802 1.378 6.959 5.46 11.486 9.125l1.888-2.332 1.888-2.332c-4.542-3.676-9.749-7.798-11.617-9.227l-1.823 2.383Zm11.552 9.176-1.826 2.38c4.467 3.428 10.982 9.739 14.273 13.852l2.342-1.874 2.343-1.874c-3.619-4.523-10.488-11.167-15.305-14.864l-1.827 2.38Zm14.789 14.358-2.319 1.904c6.923 8.431 15.186 23.253 22.683 40.007 7.476 16.706 14.071 35.067 17.742 50.439l2.918-.696 2.918-.697c-3.779-15.826-10.516-34.548-18.101-51.497-7.563-16.901-16.086-32.306-23.522-41.363l-2.319 1.903Zm41.024 91.654-2.921.687c3.383 14.376 4.343 25.336 3.809 43.703l2.998.087 2.999.087c.546-18.769-.439-30.264-3.965-45.251l-2.92.687Zm3.886 44.477-2.998-.093-.54 17.381 2.998.093 2.999.093.54-17.381-2.999-.093Zm-.54 17.381 2.832.991 2.267-6.478-2.832-.99-2.832-.991-2.266 6.477 2.831.991Zm2.267-6.477 2.838.971c6.954-20.318 11.929-43.674 11.929-57.108h-6c0 12.474-4.741 35.108-11.606 55.165l2.839.972Zm11.767-56.137h3c0-8.431-1.497-19.903-3.702-30.847-2.202-10.926-5.168-21.623-8.217-28.455l-2.74 1.223-2.739 1.222c2.78 6.231 5.643 16.423 7.814 27.195 2.167 10.755 3.584 21.792 3.584 29.662h3Zm-11.659-58.079 2.729-1.247c-3.028-6.628-9.331-15.589-16.147-23.752-6.811-8.157-14.444-15.887-20.293-19.902l-1.698 2.474-1.697 2.473c5.161 3.543 12.373 10.765 19.083 18.801 6.705 8.031 12.601 16.505 15.295 22.399l2.728-1.246Zm-35.409-42.427 1.691-2.478c-6.847-4.673-14.46-8.861-21.344-11.905-6.756-2.989-13.217-5.062-17.623-5.133l-.049 2.999-.049 3c3.107.05 8.613 1.666 15.294 4.621 6.553 2.898 13.846 6.908 20.389 11.374l1.691-2.478ZM208.831 187.5v-3h-3.59v6h3.59v-3Zm-102.477-13.063.984 2.834c2.661-.923 4.797-1.703 6.395-2.343 1.472-.589 2.817-1.181 3.616-1.763a3.94 3.94 0 0 0 .932-.931c.328-.472.984-1.75.252-3.216-.588-1.177-1.662-1.54-1.936-1.628a4.621 4.621 0 0 0-1.059-.196c-.975-.074-2.423.061-4.062.272l.384 2.976.384 2.975c1.708-.22 2.568-.261 2.84-.24.055.004-.088.001-.322-.074-.094-.031-1.055-.319-1.597-1.404-.687-1.374-.051-2.543.188-2.888.137-.196.266-.324.331-.384.07-.066.121-.103.136-.114.012-.009-.137.092-.593.307-.417.198-.986.443-1.722.737-1.472.589-3.506 1.334-6.134 2.246l.983 2.834Zm5.506-3.995-.414-2.971c-2.693.375-7.292 1.867-11.044 3.316-1.916.741-3.74 1.519-5.117 2.213-.675.339-1.335.704-1.865 1.074a5.518 5.518 0 0 0-.89.757c-.182.197-.942 1.019-.943 2.301l3 .003 3 .003c0 .622-.203 1.08-.331 1.314a2.29 2.29 0 0 1-.327.46c-.114.123-.17.149-.072.08.18-.126.543-.34 1.125-.633 1.136-.572 2.76-1.271 4.582-1.975 3.724-1.438 7.762-2.699 9.711-2.971l-.415-2.971Zm-17.273 6.693h-3c0 .897.349 1.912 1.24 2.643.749.613 1.573.767 2.047.816.94.096 1.997-.088 2.943-.304 2.029-.462 5.126-1.465 9.538-3.025l-1.001-2.828-1-2.828c-4.441 1.57-7.227 2.457-8.87 2.831-.888.202-1.113.173-.997.185.063.006.59.058 1.144.512a2.61 2.61 0 0 1 .956 1.998h-3Z" mask="url(#a)"/>
  <mask id="b" width="287" height="370" x="372.039" y="147" fill="#000" maskUnits="userSpaceOnUse">
    <path fill="#fff" d="M372.039 147h287v370h-287z"/>
    <path d="M523.801 150c31.9 0 59.3 11 87 34.9 17.2 14.9 26.401 28.8 31.2 47.1 4.4 16.8 3.7 54.5-1.6 80.7-.8 4-1.4 12.7-1.5 19.5 0 6.8-.5 14.6-1 17.3-.5 2.8-1.2 7.3-1.6 10.2-.5 4.5-.3 5.2 1.6 6.2 1.8 1 2.1 2.1 2.1 7.1 0 3.5-.5 6.3-1.2 7-.7.5-2.299 1.8-3.599 2.8-2.2 1.6-2.301 2.5-2.601 13.7-.3 12 1.7 30.3 4.9 44.7 2.801 12.6 9.201 26.4 16.201 35.1 1.8 2.2 2.299 4.1 2.299 8.2 0 6.8-1.1 7.5-11.5 7.5h-7.5l-2.799-4.5c-2.5-4.2-3.001-4.5-7-4.5-2.4 0-5.3-.5-6.5-1.1-4.2-2.1-14.501-14.1-18.201-21.1-5.3-10-7.3-17.4-8.7-32-.699-7.098-1.499-12.796-1.8-12.8-1.499 0-9.199 10.5-10.799 14.8-2.7 7-8.001 16.3-14.101 24.6-12.4 17-39.499 42.4-50.1 46.8-2.499 1.1-5.399 2.3-6.5 2.8-2.8 1.3-15.3 4.6-26.4 7-8.7 1.8-25.499 2.6-31.6 1.4-1.1-.2-4.3-.9-7.2-1.5-3.1-.6-8.9-3.2-14.5-6.6-5.1-3.1-11.6-6.7-14.4-7.9-19-8.4-30.4-20.9-38-41.4-2.3-6.4-2.799-9.4-3.199-21-.4-12.6-.201-14.1 2.199-21.3 6.1-18.3 19-38.1 35.1-54.2 11-11 15.501-14.5 26-19.8 13.3-6.8 33.001-12.3 61-17.2 15.6-2.8 39.6-8.5 63.1-15 21.4-6 21.4-6 21.4-8.7.001-1.3 1.5-3.9 3.3-5.8 3.1-3.5 3.2-3.8 3.3-12.8 0-9 .1-9.3 3.2-12.5l3.2-3.3-5-9.8c-2.7-5.5-6.3-11.7-8-14-1.7-2.2-6.4-8.7-10.5-14.2-9.3-12.7-25.2-28-30.4-29.3-9.8-2.4-22.6-4.3-31.6-4.8-11.2-.6-18 .5-33.1 5.7-8.4 2.8-9.3 3.4-16.1 10.5-6.9 7.2-18.499 23.1-22.3 30.5-2.3 4.5-7.4 21.7-9 30-1.6 8.4-1.5 25.6 0 27.5.8 1 1.1 4.001.8 8.4-.5 9.6-2.8 12.1-11 12.1-6.3 0-12.7-2.1-13-4.2 0-.701-.2-8.301-.4-16.8-.1-8.5-1-21.3-1.9-28.5-5.6-43.2 1.1-67.9 22.3-82.3 3.1-2.1 11.5-7.7 18.5-12.5 13.4-9.1 22.1-13.7 29.7-15.6 7.2-1.7 16.001-3.1 20.201-3.1 2.1 0 6.1-.9 9-2 4.299-1.6 7.7-2 18.599-2Zm80.8 178.801c.8-8.8-.101-9.9-3.6-4.401-5.901 9.6-21.101 19.001-41 25.401-10.6 3.4-17.301 4.8-27 5.7-48.2 4.2-59 5.8-67.8 10-12.1 5.7-29.9 18.2-35.1 24.6-10.5 13-16.9 25.6-18.7 36.8-3.2 19.6-1.1 33.3 6.7 45.1 7.7 11.5 18.7 17.4 34.899 18.9 13.3 1.2 20.801 0 31.5-4.9 17.8-8.1 34.001-24.2 46.501-46.1 9.999-17.699 15.4-26.3 19.5-31.4 5.5-6.8 20.7-21.7 29.4-29 4-3.2 7.999-6.8 8.899-8 1-1.1 3.601-3.3 5.901-4.9 2.4-1.5 4.8-3.5 5.4-4.3 1.1-1.301 2.9-14.401 4.5-33.5Zm-37.999 85.498c-.501-.498-5.5 5.901-8.5 10.9-1.6 2.7-1.8 3.6-.8 3.2 3.1-1.2 10.7-12.7 9.3-14.1Zm30.399-24.399c1.2-2.899.601-5.399-1.099-4.299-.9.5-4.9 7.798-4.901 8.799 0 1.7 5.1-2.1 6-4.5Zm-32.5-64.201c4-2.2 3.3-2.1-8.7.8-12.6 3.2-22.8 5.3-46.8 10-10.2 2-21.6 4.4-25.5 5.5-3.8 1-10.8 2.8-15.5 4-4.7 1.3-10.5 3.301-12.9 4.601-2.4 1.299-4.9 2.399-5.5 2.399-3.702.002-28.6 21.001-28.6 24.101.001.599 1.901-.401 4.3-2.101 9.4-7.1 24.7-17 31.2-20.3 8.6-4.3 13.501-5.7 34.5-10.2 9.1-2 18.1-4 20-4.5 1.9-.6 11.4-2.8 21-5 19.6-4.5 28.1-6.9 32.5-9.3Zm53-103.598c-3.5-6.7-13.199-18.701-14.299-17.701-.3.301.9 3.6 2.6 7.3 4.4 9.7 7.8 23.701 9.6 39.801.9 7.7 1.999 15.6 2.599 17.5.6 1.9 1.701 7.3 2.601 12 .9 4.699 1.8 8.898 2.1 9.399.3.5 1.1 0 1.7-1 .7-1.2 1.1-9.5 1-23.399 0-24.4-1.301-31.2-7.901-43.9Zm-174.5-26.301c0-2.5-10.9 4.999-13.4 9.199-1 1.8-1.4 3.1-.8 2.9 1.701-.6 14.197-11.197 14.2-12.099Zm23.1-16.801c-3.6 1.9-17.4 10.9-19.3 12.7-1 .9-1.8 2-1.8 2.5s1 .3 2.3-.3c4-2.1 17.2-11.6 19.2-13.9l2-2.3-2.4 1.3Zm94.5 2.501c-4.6-4.1-11.901-7.8-14.301-7.3-1.299.2-.499 1.2 3.101 3.8 2.8 1.8 6.6 4.2 8.5 5.1 5.8 2.9 7 2.1 2.7-1.6Z"/>
  </mask>
  <path fill="#fff" d="M523.801 150c31.9 0 59.3 11 87 34.9 17.2 14.9 26.401 28.8 31.2 47.1 4.4 16.8 3.7 54.5-1.6 80.7-.8 4-1.4 12.7-1.5 19.5 0 6.8-.5 14.6-1 17.3-.5 2.8-1.2 7.3-1.6 10.2-.5 4.5-.3 5.2 1.6 6.2 1.8 1 2.1 2.1 2.1 7.1 0 3.5-.5 6.3-1.2 7-.7.5-2.299 1.8-3.599 2.8-2.2 1.6-2.301 2.5-2.601 13.7-.3 12 1.7 30.3 4.9 44.7 2.801 12.6 9.201 26.4 16.201 35.1 1.8 2.2 2.299 4.1 2.299 8.2 0 6.8-1.1 7.5-11.5 7.5h-7.5l-2.799-4.5c-2.5-4.2-3.001-4.5-7-4.5-2.4 0-5.3-.5-6.5-1.1-4.2-2.1-14.501-14.1-18.201-21.1-5.3-10-7.3-17.4-8.7-32-.699-7.098-1.499-12.796-1.8-12.8-1.499 0-9.199 10.5-10.799 14.8-2.7 7-8.001 16.3-14.101 24.6-12.4 17-39.499 42.4-50.1 46.8-2.499 1.1-5.399 2.3-6.5 2.8-2.8 1.3-15.3 4.6-26.4 7-8.7 1.8-25.499 2.6-31.6 1.4-1.1-.2-4.3-.9-7.2-1.5-3.1-.6-8.9-3.2-14.5-6.6-5.1-3.1-11.6-6.7-14.4-7.9-19-8.4-30.4-20.9-38-41.4-2.3-6.4-2.799-9.4-3.199-21-.4-12.6-.201-14.1 2.199-21.3 6.1-18.3 19-38.1 35.1-54.2 11-11 15.501-14.5 26-19.8 13.3-6.8 33.001-12.3 61-17.2 15.6-2.8 39.6-8.5 63.1-15 21.4-6 21.4-6 21.4-8.7.001-1.3 1.5-3.9 3.3-5.8 3.1-3.5 3.2-3.8 3.3-12.8 0-9 .1-9.3 3.2-12.5l3.2-3.3-5-9.8c-2.7-5.5-6.3-11.7-8-14-1.7-2.2-6.4-8.7-10.5-14.2-9.3-12.7-25.2-28-30.4-29.3-9.8-2.4-22.6-4.3-31.6-4.8-11.2-.6-18 .5-33.1 5.7-8.4 2.8-9.3 3.4-16.1 10.5-6.9 7.2-18.499 23.1-22.3 30.5-2.3 4.5-7.4 21.7-9 30-1.6 8.4-1.5 25.6 0 27.5.8 1 1.1 4.001.8 8.4-.5 9.6-2.8 12.1-11 12.1-6.3 0-12.7-2.1-13-4.2 0-.701-.2-8.301-.4-16.8-.1-8.5-1-21.3-1.9-28.5-5.6-43.2 1.1-67.9 22.3-82.3 3.1-2.1 11.5-7.7 18.5-12.5 13.4-9.1 22.1-13.7 29.7-15.6 7.2-1.7 16.001-3.1 20.201-3.1 2.1 0 6.1-.9 9-2 4.299-1.6 7.7-2 18.599-2Zm80.8 178.801c.8-8.8-.101-9.9-3.6-4.401-5.901 9.6-21.101 19.001-41 25.401-10.6 3.4-17.301 4.8-27 5.7-48.2 4.2-59 5.8-67.8 10-12.1 5.7-29.9 18.2-35.1 24.6-10.5 13-16.9 25.6-18.7 36.8-3.2 19.6-1.1 33.3 6.7 45.1 7.7 11.5 18.7 17.4 34.899 18.9 13.3 1.2 20.801 0 31.5-4.9 17.8-8.1 34.001-24.2 46.501-46.1 9.999-17.699 15.4-26.3 19.5-31.4 5.5-6.8 20.7-21.7 29.4-29 4-3.2 7.999-6.8 8.899-8 1-1.1 3.601-3.3 5.901-4.9 2.4-1.5 4.8-3.5 5.4-4.3 1.1-1.301 2.9-14.401 4.5-33.5Zm-37.999 85.498c-.501-.498-5.5 5.901-8.5 10.9-1.6 2.7-1.8 3.6-.8 3.2 3.1-1.2 10.7-12.7 9.3-14.1Zm30.399-24.399c1.2-2.899.601-5.399-1.099-4.299-.9.5-4.9 7.798-4.901 8.799 0 1.7 5.1-2.1 6-4.5Zm-32.5-64.201c4-2.2 3.3-2.1-8.7.8-12.6 3.2-22.8 5.3-46.8 10-10.2 2-21.6 4.4-25.5 5.5-3.8 1-10.8 2.8-15.5 4-4.7 1.3-10.5 3.301-12.9 4.601-2.4 1.299-4.9 2.399-5.5 2.399-3.702.002-28.6 21.001-28.6 24.101.001.599 1.901-.401 4.3-2.101 9.4-7.1 24.7-17 31.2-20.3 8.6-4.3 13.501-5.7 34.5-10.2 9.1-2 18.1-4 20-4.5 1.9-.6 11.4-2.8 21-5 19.6-4.5 28.1-6.9 32.5-9.3Zm53-103.598c-3.5-6.7-13.199-18.701-14.299-17.701-.3.301.9 3.6 2.6 7.3 4.4 9.7 7.8 23.701 9.6 39.801.9 7.7 1.999 15.6 2.599 17.5.6 1.9 1.701 7.3 2.601 12 .9 4.699 1.8 8.898 2.1 9.399.3.5 1.1 0 1.7-1 .7-1.2 1.1-9.5 1-23.399 0-24.4-1.301-31.2-7.901-43.9Zm-174.5-26.301c0-2.5-10.9 4.999-13.4 9.199-1 1.8-1.4 3.1-.8 2.9 1.701-.6 14.197-11.197 14.2-12.099Zm23.1-16.801c-3.6 1.9-17.4 10.9-19.3 12.7-1 .9-1.8 2-1.8 2.5s1 .3 2.3-.3c4-2.1 17.2-11.6 19.2-13.9l2-2.3-2.4 1.3Zm94.5 2.501c-4.6-4.1-11.901-7.8-14.301-7.3-1.299.2-.499 1.2 3.101 3.8 2.8 1.8 6.6 4.2 8.5 5.1 5.8 2.9 7 2.1 2.7-1.6Z"/>
  <path fill="#fff" d="M523.801 150v-3 3Zm87 34.9 1.965-2.267-.005-.004-1.96 2.271Zm31.2 47.1 2.903-.76-.001-.001-2.902.761Zm-1.6 80.7-2.941-.595-.001.007 2.942.588Zm-1.5 19.5-3-.044v.044h3Zm-1 17.3-2.95-.546-.002.009-.001.01 2.953.527Zm-1.6 10.2-2.972-.41-.005.04-.004.039 2.981.331Zm1.6 6.2 1.457-2.622-.03-.017-.03-.015-1.397 2.654Zm.9 14.1 1.744 2.441.202-.144.176-.176-2.122-2.121Zm-3.599 2.8 1.764 2.426.033-.024.032-.024-1.829-2.378Zm-2.601 13.7-2.999-.08v.005l2.999.075Zm4.9 44.7-2.928.651 2.928-.651Zm16.201 35.1-2.338 1.88.008.01.008.009 2.322-1.899Zm-9.201 15.7v3-3Zm-7.5 0-2.547 1.585.881 1.415h1.666v-3Zm-2.799-4.5-2.578 1.534.015.026.015.025 2.548-1.585Zm-7-4.5v-3 3Zm-6.5-1.1-1.342 2.684h.001l1.341-2.684Zm-18.201-21.1 2.653-1.402-.002-.003-2.651 1.405Zm-8.7-32 2.987-.287-.001-.008-2.986.295Zm-1.8-12.8.035-3h-.035v3Zm-10.799 14.8 2.799 1.079.006-.016.006-.017-2.811-1.046Zm-14.101 24.6-2.417-1.776-.007.008 2.424 1.768Zm-50.1 46.8-1.15-2.771-.029.013-.029.012 1.208 2.746Zm-6.5 2.8-1.241-2.731-.011.005-.011.005 1.263 2.721Zm-26.4 7 .608 2.938.013-.003.013-.003-.634-2.932Zm-31.6 1.4.579-2.943-.021-.004-.021-.004-.537 2.951Zm-7.2-1.5.608-2.937-.019-.004-.019-.004-.57 2.945Zm-14.5-6.6-1.558 2.563.001.001 1.557-2.564Zm-14.4-7.9-1.213 2.744.015.007.016.007 1.182-2.758Zm-38-41.4-2.823 1.015.005.014.005.014 2.813-1.043Zm-3.199-21-2.999.095v.008l2.999-.103Zm2.199-21.3-2.846-.948 2.846.948Zm35.1-54.2-2.121-2.121 2.121 2.121Zm26-19.8 1.352 2.678.007-.003.007-.004-1.366-2.671Zm61-17.2.518 2.955.012-.002-.53-2.953Zm63.1-15 .8 2.891.01-.002-.81-2.889Zm21.4-8.7-3-.001v.001h3Zm3.3-5.8 2.178 2.063.035-.036.033-.038-2.246-1.989Zm3.3-12.8 3 .034v-.034h-3Zm3.2-12.5-2.153-2.088-.001.001 2.154 2.087Zm3.2-3.3 2.154 2.089 1.494-1.54-.975-1.912-2.673 1.363Zm-5-9.8-2.693 1.322.011.02.01.021 2.672-1.363Zm-8-14 2.413-1.784-.019-.025-.02-.026-2.374 1.835Zm-10.5-14.2-2.42 1.773.008.01.007.01 2.405-1.793Zm-30.4-29.3.728-2.911-.007-.002-.007-.001-.714 2.914Zm-31.6-4.8.167-2.996h-.006l-.161 2.996Zm-33.1 5.7.949 2.846.014-.005.014-.004-.977-2.837Zm-16.1 10.5 2.166 2.076.001-.001-2.167-2.075Zm-22.3 30.5-2.668-1.37-.003.005 2.671 1.365Zm-9 30-2.945-.568-.002.007 2.947.561Zm0 27.5-2.354 1.859.006.007.006.008 2.342-1.874Zm.8 8.4-2.993-.204-.001.024-.002.024 2.996.156Zm-11 12.1v3-3Zm-13-4.2h-3v.213l.03.211 2.97-.424Zm-.4-16.8-3 .035v.018l.001.018 2.999-.071Zm-1.9-28.5 2.977-.372-.001-.014-2.976.386Zm22.3-82.3-1.682-2.484-.003.003 1.685 2.481Zm18.5-12.5-1.685-2.482-.011.008 1.696 2.474Zm29.7-15.6-.689-2.92-.019.004-.019.005.727 2.911Zm20.201-3.1v3-3Zm9-2-1.046-2.812-.009.004-.009.003 1.064 2.805Zm99.399 176.801-2.988-.272-.001.011v.01l2.989.251Zm-3.6-4.401-2.531-1.61-.013.02-.012.02 2.556 1.57Zm-41 25.401.916 2.856h.002l-.918-2.856Zm-27 5.7.26 2.989.008-.001.009-.001-.277-2.987Zm-67.8 10 1.278 2.714.007-.003.007-.004-1.292-2.707Zm-35.1 24.6-2.328-1.892-.006.007 2.334 1.885Zm-18.7 36.8 2.961.484.001-.008-2.962-.476Zm6.7 45.1-2.503 1.654.005.008.005.007 2.493-1.669Zm34.899 18.9-.276 2.988h.007l.269-2.988Zm31.5-4.9-1.242-2.731-.007.003 1.249 2.728Zm46.501-46.1 2.605 1.488.006-.012-2.611-1.476Zm19.5-31.4-2.333-1.887-.006.007 2.339 1.88Zm29.4-29-1.874-2.343-.028.022-.026.023 1.928 2.298Zm8.899-8-2.22-2.018-.095.105-.085.113 2.4 1.8Zm5.901-4.9-1.59-2.544-.063.039-.06.042 1.713 2.463Zm5.4-4.3-2.291-1.937-.056.067-.053.07 2.4 1.8Zm-33.499 51.998 2.121-2.122-.007-.007-2.114 2.129Zm-8.5 10.9-2.572-1.543-.005.007-.004.007 2.581 1.529Zm-.8 3.2-1.083-2.797-.015.006-.016.006 1.114 2.785Zm39.699-38.499-2.772-1.147-.019.047-.018.047 2.809 1.053Zm-1.099-4.299 1.457 2.622.088-.049.084-.054-1.629-2.519Zm-4.901 8.799-3-.003v.003h3Zm-26.5-68.701 1.437 2.634.009-.005-1.446-2.629Zm-8.7.8-.704-2.916-.017.004-.017.004.738 2.908Zm-46.8 10-.576-2.944h-.001l.577 2.944Zm-25.5 5.5.764 2.901.025-.006.026-.008-.815-2.887Zm-15.5 4-.742-2.907-.029.008-.028.008.799 2.891Zm-12.9 4.601 1.429 2.638v-.001l-1.429-2.637Zm-5.5 2.399v-3h-.001l.001 3Zm-28.6 24.101h-3v.003l3-.003Zm4.3-2.101 1.734 2.448.038-.026.036-.028-1.808-2.394Zm31.2-20.3-1.341-2.683-.008.004-.009.004 1.358 2.675Zm34.5-10.2.629 2.933.008-.001.007-.002-.644-2.93Zm20-4.5.764 2.901.07-.018.07-.022-.904-2.861Zm21-5 .671 2.924h.001l-.672-2.924Zm85.5-112.898 2.662-1.384-.002-.005-2.66 1.389ZM603.202 204.4l-2.018-2.219-.054.048-.051.052 2.123 2.119Zm2.6 7.3 2.732-1.239-.003-.007-.003-.006-2.726 1.252Zm9.6 39.801-2.982.333.001.008.001.007 2.98-.348Zm2.599 17.5 2.861-.903-2.861.903Zm2.601 12-2.946.564 2.946-.564Zm2.1 9.399-2.574 1.542.001.002 2.573-1.544Zm1.7-1 2.572 1.544.01-.016.009-.016-2.591-1.512Zm1-23.399h-3v.022l3-.022ZM443.001 195.8l3 .012v-.012h-3Zm-13.4 9.199-2.578-1.535-.023.039-.021.039 2.622 1.457Zm-.8 2.9.949 2.846.025-.008.025-.009-.999-2.829Zm37.3-28.9 1.4 2.653.015-.007.014-.008-1.429-2.638Zm-19.3 12.7 2.007 2.23.029-.026.028-.026-2.064-2.178Zm.5 2.2 1.257 2.724.07-.032.068-.035-1.395-2.657Zm19.2-13.9-2.263-1.969 2.263 1.969Zm2-2.3 2.264 1.969-3.692-4.607 1.428 2.638Zm92.1 3.801-1.996 2.24.019.017.02.017 1.957-2.274Zm-14.301-7.3.457 2.965.078-.012.077-.016-.612-2.937Zm3.101 3.8-1.757 2.432.066.048.069.044 1.622-2.524Zm8.5 5.1 1.342-2.684-.029-.014-.029-.014-1.284 2.712Zm-34.1-33.1v3c31.075 0 57.8 10.668 85.04 34.172l1.96-2.272 1.96-2.271C584.602 158.333 556.526 147 523.801 147v3Zm87 34.9-1.964 2.268c16.836 14.585 25.645 27.988 30.263 45.593l2.901-.761 2.902-.761c-4.982-18.994-14.574-33.391-32.137-48.606l-1.965 2.267Zm31.2 47.1-2.902.76c2.093 7.989 3.027 21.277 2.74 36.007-.285 14.665-1.772 30.454-4.379 43.338l2.941.595 2.94.595c2.694-13.316 4.207-29.476 4.497-44.412.289-14.87-.627-28.832-2.934-37.643l-2.903.76Zm-1.6 80.7-2.942-.588c-.856 4.283-1.457 13.211-1.558 20.044l3 .044 3 .044c.099-6.766.698-15.238 1.442-18.955l-2.942-.589Zm-1.5 19.5h-3c0 6.767-.503 14.338-.95 16.754l2.95.546 2.95.546c.552-2.984 1.05-11.013 1.05-17.846h-3Zm-1 17.3-2.953-.527c-.509 2.845-1.214 7.385-1.619 10.317l2.972.41 2.972.41a309.071 309.071 0 0 1 1.581-10.083l-2.953-.527Zm-1.6 10.2-2.981-.331c-.126 1.135-.22 2.124-.245 2.966-.026.826.005 1.697.223 2.535a5.154 5.154 0 0 0 1.365 2.4c.605.601 1.299 1 1.841 1.285l1.397-2.655 1.397-2.654c-.408-.215-.452-.279-.403-.23.12.119.193.278.209.34a2.583 2.583 0 0 1-.026-.203 6.406 6.406 0 0 1-.006-.634c.018-.586.087-1.373.211-2.488l-2.982-.331Zm1.6 6.2-1.457 2.623c.287.159.318.217.286.18-.053-.061-.033-.08.017.09.158.539.254 1.616.254 4.207h6c0-2.409-.053-4.381-.496-5.893-.25-.854-.642-1.649-1.258-2.353-.595-.68-1.276-1.135-1.889-1.476l-1.457 2.622Zm2.1 7.1h-3c0 1.623-.117 3.02-.293 4.037a7.116 7.116 0 0 1-.256 1.076c-.103.295-.085.078.228-.234l2.121 2.121 2.122 2.121c.662-.663 1.006-1.492 1.193-2.028.217-.621.38-1.317.504-2.03.248-1.434.381-3.186.381-5.063h-3Zm-1.2 7-1.743-2.441c-.745.532-2.531 1.975-3.685 2.863l1.829 2.378 1.829 2.378c1.445-1.112 2.859-2.269 3.514-2.737L638.801 380Zm-3.599 2.8-1.765-2.426c-.63.458-1.398 1.066-2.022 2-.63.942-.965 1.987-1.176 3.13-.392 2.118-.49 5.45-.637 10.916l2.999.08 2.999.08c.154-5.734.255-8.452.539-9.984.126-.682.247-.863.265-.889.023-.034.092-.139.562-.481l-1.764-2.426Zm-2.601 13.7-2.999-.075c-.307 12.291 1.729 30.838 4.971 45.426l2.928-.651 2.929-.651c-3.158-14.212-5.123-32.265-4.83-43.974l-2.999-.075Zm4.9 44.7-2.928.651c2.886 12.987 9.465 27.223 16.791 36.329l2.338-1.88 2.337-1.881c-6.673-8.294-12.895-21.657-15.609-33.87l-2.929.651Zm16.201 35.1-2.322 1.899c.69.844 1.038 1.504 1.256 2.29.24.867.365 2.044.365 4.011h6c0-2.133-.124-3.956-.583-5.614-.483-1.739-1.285-3.13-2.394-4.486l-2.322 1.9Zm2.299 8.2h-3c0 1.698-.078 2.672-.237 3.286-.122.467-.221.481-.249.5-.189.123-.732.36-2.157.516-1.384.152-3.254.198-5.857.198v6c2.598 0 4.765-.042 6.512-.234 1.707-.187 3.389-.55 4.775-1.452 1.547-1.006 2.373-2.442 2.783-4.019.371-1.43.43-3.093.43-4.795h-3Zm-11.5 7.5v-3h-7.5v6h7.5v-3Zm-7.5 0 2.548-1.585-2.8-4.5-2.547 1.585-2.548 1.585 2.8 4.5 2.547-1.585Zm-2.799-4.5 2.578-1.534c-1.145-1.923-2.245-3.759-3.899-4.818-1.795-1.148-3.834-1.148-5.679-1.148v6c2.154 0 2.364.15 2.445.202.048.031.217.152.563.615.357.48.786 1.163 1.414 2.217l2.578-1.534Zm-7-4.5v-3c-1.012 0-2.168-.107-3.197-.282-1.107-.189-1.772-.406-1.962-.501l-1.341 2.683-1.341 2.684c1.01.505 2.395.837 3.638 1.049 1.321.224 2.815.367 4.203.367v-3Zm-6.5-1.1 1.341-2.683c-.624-.312-1.783-1.185-3.373-2.693-1.522-1.442-3.249-3.28-4.982-5.294-3.5-4.064-6.836-8.619-8.534-11.832l-2.653 1.402-2.652 1.402c2.002 3.787 5.666 8.732 9.292 12.943 1.828 2.124 3.696 4.118 5.402 5.734 1.638 1.553 3.341 2.967 4.817 3.705l1.342-2.684Zm-18.201-21.1 2.651-1.405c-5.069-9.564-6.991-16.559-8.364-30.882l-2.987.287-2.986.286c1.427 14.878 3.505 22.683 9.036 33.119l2.65-1.405Zm-8.7-32 2.986-.295c-.353-3.576-.732-6.818-1.065-9.183a56.812 56.812 0 0 0-.468-2.903c-.07-.349-.152-.719-.249-1.036a4.112 4.112 0 0 0-.275-.692 3.207 3.207 0 0 0-.504-.719 3.038 3.038 0 0 0-2.19-.972l-.035 3-.035 3a2.955 2.955 0 0 1-2.13-.939 2.795 2.795 0 0 1-.439-.619 2.121 2.121 0 0 1-.106-.239c-.016-.041-.023-.065-.024-.066l.008.029a7.864 7.864 0 0 1 .093.421c.112.563.253 1.432.413 2.57.317 2.26.688 5.415 1.035 8.937l2.985-.294Zm-1.8-12.8v-3c-.868 0-1.532.342-1.816.502a6.29 6.29 0 0 0-.925.646c-.513.425-1.051.968-1.572 1.54-1.055 1.158-2.278 2.698-3.47 4.329-2.321 3.172-4.87 7.163-5.828 9.737l2.812 1.046 2.811 1.046c.643-1.726 2.743-5.136 5.048-8.288 1.12-1.531 2.203-2.886 3.063-3.83.437-.48.76-.791.961-.957.103-.085.109-.078.032-.035-.007.004-.435.264-1.116.264v-3Zm-10.799 14.8-2.799-1.08c-2.579 6.686-7.729 15.753-13.719 23.904l2.417 1.776 2.417 1.777c6.21-8.449 11.662-17.983 14.483-25.298l-2.799-1.079Zm-14.101 24.6-2.424-1.768c-6.048 8.293-15.777 18.749-25.35 27.702-4.776 4.467-9.472 8.52-13.604 11.714-4.194 3.242-7.612 5.443-9.872 6.381l1.15 2.771 1.151 2.771c3.04-1.262 6.984-3.886 11.24-7.175 4.318-3.338 9.159-7.521 14.033-12.08 9.727-9.097 19.748-19.84 26.1-28.548l-2.424-1.768Zm-50.1 46.8-1.208-2.746c-2.343 1.031-5.456 2.325-6.533 2.815l1.241 2.731 1.242 2.731c1.123-.51 3.81-1.616 6.467-2.785l-1.209-2.746Zm-6.5 2.8-1.263-2.721c-1.108.515-4.644 1.598-9.592 2.908a379.597 379.597 0 0 1-16.179 3.881l.634 2.932.634 2.932a384.652 384.652 0 0 0 16.447-3.944c4.777-1.265 8.891-2.482 10.583-3.267L510.501 505Zm-26.4 7-.608-2.938c-4.131.855-10.33 1.495-16.303 1.766-6.047.275-11.449.152-14.11-.371l-.579 2.943-.579 2.944c3.44.677 9.488.753 15.541.478 6.127-.279 12.677-.939 17.246-1.884l-.608-2.938Zm-31.6 1.4.537-2.951c-1.056-.192-4.144-.869-7.129-1.486l-.608 2.937-.608 2.938c2.815.583 6.127 1.306 7.272 1.514l.536-2.952Zm-7.2-1.5.57-2.945c-2.559-.495-7.987-2.864-13.513-6.22l-1.557 2.565-1.557 2.564c5.674 3.445 11.847 6.277 15.487 6.982l.57-2.946Zm-14.5-6.6 1.559-2.564c-5.109-3.105-11.766-6.802-14.777-8.093l-1.182 2.757-1.182 2.758c2.589 1.109 8.933 4.611 14.024 7.705l1.558-2.563Zm-14.4-7.9 1.213-2.743c-18.208-8.05-29.062-19.906-36.4-39.7L378.401 456l-2.813 1.043c7.862 21.206 19.808 34.351 39.6 43.101l1.213-2.744Zm-38-41.4 2.823-1.015c-1.116-3.105-1.748-5.255-2.17-7.992-.433-2.805-.654-6.295-.854-12.096l-2.998.103-2.999.103c.2 5.799.428 9.609.921 12.804.503 3.263 1.27 5.813 2.454 9.108l2.823-1.015Zm-3.199-21 2.998-.095c-.201-6.349-.239-9.659.035-12.266.263-2.503.82-4.414 2.012-7.99l-2.846-.949-2.846-.948c-1.208 3.623-1.951 6.062-2.287 9.259-.326 3.093-.263 6.833-.065 13.084l2.999-.095Zm2.199-21.3 2.846.949c5.926-17.777 18.539-37.191 34.376-53.028l-2.122-2.121-2.121-2.121c-16.363 16.363-29.551 36.549-35.825 55.373l2.846.948Zm35.1-54.2 2.122 2.121c10.855-10.855 15.101-14.13 25.23-19.243l-1.352-2.678-1.351-2.678c-10.871 5.487-15.625 9.212-26.77 20.357l2.121 2.121Zm26-19.8 1.366 2.671c12.886-6.588 32.222-12.028 60.152-16.916l-.518-2.955-.517-2.955c-28.07 4.912-48.134 10.472-61.848 17.484l1.365 2.671Zm61-17.2.53 2.953c15.725-2.823 39.822-8.548 63.37-15.062l-.8-2.891-.8-2.891c-23.452 6.486-47.354 12.161-62.83 14.938l.53 2.953Zm63.1-15 .81 2.889c10.577-2.966 16.166-4.527 19.045-5.697 1.375-.559 2.784-1.265 3.661-2.507.974-1.377.884-2.89.884-3.385h-6c0 .855-.089.355.216-.076.208-.295.28-.119-1.021.409-2.471 1.005-7.581 2.444-18.405 5.478l.81 2.889Zm21.4-8.7h3c0 .183-.036.159.077-.147a7.31 7.31 0 0 1 .503-1.04 13.95 13.95 0 0 1 1.898-2.55L587.301 293l-2.178-2.063a19.89 19.89 0 0 0-2.751 3.699c-.36.63-.682 1.288-.922 1.936-.224.606-.448 1.394-.449 2.227l3 .001Zm3.3-5.8 2.246 1.989c1.515-1.71 2.805-3.151 3.433-5.573.54-2.081.573-4.862.621-9.182l-3-.034-3-.033c-.052 4.679-.119 6.548-.429 7.742-.221.853-.531 1.312-2.116 3.102l2.245 1.989Zm3.3-12.8h3c0-4.692.049-6.538.343-7.676.191-.741.43-1.104 2.012-2.736l-2.155-2.088-2.154-2.087c-1.519 1.567-2.879 2.955-3.513 5.413-.532 2.063-.533 4.866-.533 9.174h3Zm3.2-12.5 2.154 2.089 3.2-3.3-2.154-2.089-2.153-2.088-3.2 3.3 2.153 2.088Zm3.2-3.3 2.673-1.363-5-9.801-2.673 1.364-2.672 1.363 5 9.801 2.672-1.364Zm-5-9.8 2.693-1.322c-2.728-5.559-6.421-11.947-8.28-14.462l-2.413 1.784-2.412 1.783c1.541 2.085 5.048 8.097 7.719 13.539l2.693-1.322Zm-8-14 2.374-1.835c-1.686-2.182-6.306-8.575-10.468-14.158l-2.406 1.793-2.405 1.793c4.038 5.417 8.818 12.023 10.532 14.241l2.373-1.834Zm-10.5-14.2 2.421-1.772c-4.771-6.515-11.191-13.644-17.077-19.314-2.945-2.837-5.798-5.349-8.282-7.254-1.241-.952-2.424-1.779-3.506-2.425-1.042-.622-2.156-1.178-3.228-1.446l-.728 2.911-.728 2.91c.228.057.749.264 1.608.777.819.489 1.804 1.17 2.93 2.034 2.251 1.726 4.929 4.076 7.771 6.815 5.69 5.48 11.87 12.352 16.399 18.537l2.42-1.773Zm-30.4-29.3.714-2.914c-9.972-2.442-22.955-4.371-32.147-4.882l-.167 2.996-.166 2.995c8.808.49 21.424 2.361 31.052 4.719l.714-2.914Zm-31.6-4.8.161-2.996c-11.698-.627-18.896.576-34.238 5.859l.977 2.837.977 2.837c14.858-5.117 21.261-6.115 31.963-5.541l.16-2.996Zm-33.1 5.7-.949-2.846c-4.15 1.383-6.842 2.34-9.341 3.972-2.466 1.61-4.63 3.805-7.976 7.299l2.166 2.075 2.167 2.075c3.454-3.606 5.14-5.261 6.923-6.426 1.751-1.143 3.709-1.886 7.959-3.303l-.949-2.846Zm-16.1 10.5-2.166-2.076c-3.584 3.741-8.3 9.638-12.568 15.481-4.256 5.826-8.222 11.806-10.234 15.725l2.668 1.37 2.669 1.37c1.788-3.481 5.522-9.151 9.741-14.925 4.206-5.757 8.741-11.41 12.056-14.869l-2.166-2.076Zm-22.3 30.5-2.671-1.365c-1.296 2.536-3.218 8.231-4.966 14.081-1.773 5.938-3.481 12.423-4.308 16.716l2.945.568 2.946.568c.773-4.007 2.415-10.272 4.166-16.134 1.778-5.95 3.556-11.105 4.56-13.069L440.001 239Zm-9 30-2.947-.561c-.852 4.473-1.228 11.091-1.215 16.755.006 2.85.111 5.542.319 7.679.103 1.062.237 2.048.414 2.873.088.411.197.834.338 1.231.127.356.347.888.737 1.382l2.354-1.859 2.355-1.859c.202.256.246.432.207.323a4.147 4.147 0 0 1-.124-.475c-.11-.512-.217-1.248-.309-2.196-.183-1.885-.285-4.375-.291-7.112-.012-5.511.362-11.693 1.109-15.62l-2.947-.561Zm0 27.5-2.342 1.874c-.162-.203-.13-.269-.044.043.075.27.155.693.213 1.296.116 1.205.124 2.878-.02 4.983l2.993.204 2.993.204c.157-2.294.165-4.321.006-5.967-.079-.822-.206-1.611-.403-2.322-.185-.67-.491-1.486-1.053-2.189l-2.343 1.874Zm.8 8.4-2.996-.156c-.25 4.814-.959 6.825-1.834 7.786-.741.813-2.186 1.47-6.17 1.47v6c4.216 0 8.021-.593 10.605-3.43 2.451-2.689 3.142-6.728 3.391-11.514l-2.996-.156Zm-11 12.1v-3c-2.852 0-5.713-.481-7.823-1.166-1.066-.346-1.812-.703-2.244-.991-.586-.389-.079-.279.037.533l-2.97.424-2.97.424c.266 1.862 1.686 3.021 2.582 3.617 1.049.697 2.352 1.258 3.712 1.7 2.74.89 6.228 1.459 9.676 1.459v-3Zm-13-4.2h3c0-.748-.202-8.427-.401-16.871l-2.999.071-2.999.071c.201 8.555.399 16.075.399 16.729h3Zm-.4-16.8 3-.035c-.102-8.611-1.009-21.524-1.923-28.837l-2.977.372-2.976.372c.885 7.087 1.777 19.774 1.876 28.163l3-.035Zm-1.9-28.5 2.976-.386c-5.562-42.904 1.279-66.03 21.01-79.432l-1.686-2.482-1.685-2.481c-22.669 15.397-29.228 41.671-23.59 85.167l2.975-.386Zm22.3-82.3 1.683 2.484c3.064-2.076 11.51-7.707 18.514-12.51l-1.697-2.474-1.696-2.474c-6.997 4.798-15.35 10.366-18.486 12.49l1.682 2.484Zm18.5-12.5 1.686 2.482c13.36-9.073 21.689-13.409 28.742-15.172l-.728-2.91-.727-2.911c-8.148 2.037-17.218 6.902-30.658 16.029l1.685 2.482Zm29.7-15.6.69 2.919c7.147-1.687 15.671-3.019 19.511-3.019v-6c-4.56 0-13.637 1.467-20.89 3.18l.689 2.92Zm20.201-3.1v3c2.602 0 6.984-1.027 10.064-2.195L505.202 152l-1.064-2.805c-2.72 1.032-6.339 1.805-7.937 1.805l.001 3Zm9-2 1.046 2.812C510 153.416 512.922 153 523.801 153v-6c-10.92 0-14.798.385-19.645 2.188l1.046 2.812Zm99.399 176.801 2.988.271c.203-2.23.309-4.082.278-5.508-.015-.71-.065-1.405-.183-2.031-.103-.543-.324-1.431-.949-2.195a3.542 3.542 0 0 0-1.573-1.108 3.506 3.506 0 0 0-1.961-.094c-.996.234-1.716.842-2.109 1.213-.858.811-1.74 2.054-2.622 3.441l2.531 1.61 2.53 1.611c.868-1.363 1.411-2.045 1.681-2.3.171-.161-.059.129-.635.265a2.505 2.505 0 0 1-1.385-.078 2.468 2.468 0 0 1-1.1-.76c-.344-.419-.351-.741-.303-.489.032.169.068.497.08 1.042.023 1.084-.058 2.669-.256 4.838l2.988.272Zm-3.6-4.401-2.556-1.57c-2.61 4.246-7.455 8.698-14.274 12.92-6.779 4.198-15.323 8.054-25.089 11.195l.919 2.856.918 2.856c10.134-3.259 19.14-7.303 26.411-11.806 7.231-4.478 12.936-9.526 16.226-14.88l-2.555-1.571Zm-41 25.401-.917-2.857c-10.416 3.341-16.902 4.692-26.361 5.57l.278 2.987.277 2.987c9.941-.922 16.856-2.372 27.639-5.831l-.916-2.856Zm-27 5.7-.261-2.989c-24.082 2.099-38.923 3.556-48.852 5.021-9.972 1.472-15.2 2.98-19.979 5.261l1.292 2.707 1.292 2.707c4.021-1.919 8.592-3.311 18.271-4.739 9.721-1.435 24.379-2.878 48.497-4.979l-.26-2.989Zm-67.8 10-1.279-2.714c-6.255 2.947-13.882 7.597-20.581 12.295-6.624 4.646-12.682 9.574-15.568 13.127l2.328 1.892 2.328 1.891c2.314-2.847 7.756-7.368 14.357-11.998 6.526-4.576 13.848-9.026 19.693-11.779l-1.278-2.714Zm-35.1 24.6-2.334-1.885c-10.684 13.228-17.415 26.306-19.328 38.209l2.962.476 2.962.476c1.687-10.496 7.756-22.619 18.072-35.391l-2.334-1.885Zm-18.7 36.8-2.961-.483c-3.275 20.058-1.194 34.602 7.158 47.237l2.503-1.654 2.503-1.654c-7.248-10.965-9.367-23.821-6.242-42.962l-2.961-.484Zm6.7 45.1-2.493 1.669c8.3 12.395 20.206 18.653 37.116 20.219l.276-2.988.277-2.987c-15.49-1.434-25.583-6.978-32.683-17.582l-2.493 1.669Zm34.899 18.9-.269 2.988c6.783.612 12.251.628 17.458-.186 5.224-.818 10.044-2.448 15.561-4.974l-1.25-2.728-1.249-2.728c-5.183 2.374-9.463 3.794-13.989 4.502-4.543.71-9.475.726-15.992.139l-.27 2.987Zm31.5-4.9 1.243 2.731c18.523-8.429 35.143-25.059 47.863-47.343l-2.605-1.488-2.606-1.487c-12.28 21.515-28.06 37.086-45.137 44.856l1.242 2.731Zm46.501-46.1 2.611 1.476c10.015-17.726 15.303-26.116 19.227-30.996l-2.338-1.88-2.339-1.88c-4.276 5.32-9.789 14.131-19.773 31.805l2.612 1.475Zm19.5-31.4 2.332 1.887c5.34-6.602 20.387-21.365 28.996-28.589l-1.928-2.298-1.928-2.298c-8.791 7.376-24.145 22.413-29.805 29.411l2.333 1.887Zm29.4-29 1.874 2.343a135.916 135.916 0 0 0 5.744-4.862c1.563-1.406 3.023-2.803 3.681-3.681l-2.4-1.8-2.4-1.8c-.242.322-1.232 1.326-2.893 2.82a129.749 129.749 0 0 1-5.48 4.637l1.874 2.343Zm8.899-8 2.22 2.018c.789-.868 3.189-2.922 5.394-4.456l-1.713-2.462-1.713-2.463c-2.396 1.666-5.197 4.013-6.408 5.345l2.22 2.018Zm5.901-4.9 1.59 2.544a38.751 38.751 0 0 0 3.67-2.623c.967-.781 1.99-1.688 2.54-2.421l-2.4-1.8-2.4-1.8c.015-.02-.089.109-.405.404-.284.264-.659.589-1.105.949a32.673 32.673 0 0 1-3.08 2.203l1.59 2.544Zm5.4-4.3 2.291 1.937c.354-.419.564-.866.679-1.133.134-.31.247-.641.345-.964.196-.647.384-1.442.567-2.339.368-1.804.756-4.235 1.154-7.175.796-5.893 1.651-13.997 2.454-23.576l-2.99-.25-2.989-.251c-.798 9.521-1.643 17.516-2.421 23.273-.39 2.885-.758 5.166-1.087 6.781a21.248 21.248 0 0 1-.43 1.797c-.06.197-.1.3-.115.334-.033.077.035-.115.251-.371l2.291 1.937Zm-33.499 51.998 2.114-2.129c-1.235-1.227-2.736-.883-3.173-.743a3.878 3.878 0 0 0-1.079.557c-.415.298-.813.684-1.14 1.023-.691.718-1.531 1.721-2.4 2.835-1.75 2.243-3.822 5.193-5.394 7.814l2.572 1.543 2.573 1.544c1.427-2.379 3.354-5.128 4.979-7.21.818-1.048 1.51-1.864 1.99-2.362.26-.269.358-.341.324-.317-.019.014-.071.05-.152.096a2.466 2.466 0 0 1-.446.192c-.307.098-1.709.45-2.882-.715l2.114-2.128Zm-8.5 10.9-2.581-1.529c-.757 1.277-1.459 2.56-1.708 3.581-.07.287-.165.779-.1 1.356.069.623.365 1.585 1.304 2.268a3.287 3.287 0 0 0 2.254.599c.486-.047.89-.187 1.145-.289l-1.114-2.786-1.114-2.785c.005-.002.197-.083.509-.113a2.716 2.716 0 0 1 1.846.519 2.777 2.777 0 0 1 1.133 1.922c.046.416-.027.7-.034.73-.019.078.002-.032.205-.44.183-.367.455-.86.836-1.503l-2.581-1.53Zm-.8 3.2 1.083 2.798c.864-.334 1.629-.907 2.222-1.417a20.5 20.5 0 0 0 1.896-1.901c1.241-1.398 2.523-3.11 3.64-4.802 1.11-1.681 2.125-3.445 2.783-4.954.32-.736.62-1.553.76-2.342.069-.394.125-.916.053-1.484-.073-.569-.305-1.409-1.016-2.119l-2.121 2.121-2.121 2.121a2.388 2.388 0 0 1-.695-1.368c-.031-.245.002-.375-.008-.318-.02.113-.109.433-.352.991-.471 1.079-1.287 2.527-2.29 4.046-.996 1.508-2.107 2.984-3.119 4.124a14.616 14.616 0 0 1-1.325 1.338c-.411.354-.561.403-.473.369l1.083 2.797Zm39.699-38.499 2.773 1.147c.734-1.775 1.102-3.818.675-5.524-.207-.83-.774-2.187-2.253-2.856-1.583-.715-3.059-.144-3.924.415l1.63 2.519 1.629 2.519c-.014.009-.778.48-1.808.014a2.146 2.146 0 0 1-.896-.742 1.324 1.324 0 0 1-.198-.414c-.015-.056.026.087-.026.464-.048.35-.163.802-.374 1.311l2.772 1.147Zm-1.099-4.299-1.457-2.623c-.447.248-.76.56-.9.704a6.882 6.882 0 0 0-.473.548c-.272.347-.556.758-.829 1.179a49.068 49.068 0 0 0-1.754 2.952 52.805 52.805 0 0 0-1.566 3.042c-.211.452-.407.899-.556 1.298a7.467 7.467 0 0 0-.215.653c-.049.179-.15.575-.151 1.043l3 .003 3 .003a2.304 2.304 0 0 1-.06.527c-.003.013.006-.023.043-.121.073-.194.197-.484.375-.866.353-.755.847-1.714 1.381-2.679a43.257 43.257 0 0 1 1.531-2.581c.227-.35.404-.599.523-.751.06-.077.078-.093.058-.072-.011.011-.051.051-.115.105a2.413 2.413 0 0 1-.378.258l-1.457-2.622Zm-4.901 8.799h-3a3.5 3.5 0 0 0 .461 1.758 3.312 3.312 0 0 0 1.687 1.437c1.128.432 2.165.144 2.563.019.982-.309 1.973-.944 2.749-1.524a17.626 17.626 0 0 0 2.446-2.22c.699-.771 1.482-1.791 1.903-2.916l-2.809-1.054-2.809-1.053a.62.62 0 0 1-.04.082 2.71 2.71 0 0 1-.144.231 6.347 6.347 0 0 1-.547.68 11.58 11.58 0 0 1-1.594 1.445 7.382 7.382 0 0 1-.705.474c-.211.121-.29.144-.249.131.023-.007.144-.045.339-.059a2.421 2.421 0 0 1 1.044.161c.527.202 1.03.593 1.36 1.162.301.521.345.997.345 1.246h-3Zm-26.5-68.701 1.446 2.629c.886-.487 1.898-1.047 2.477-1.524.129-.106.531-.437.838-.962.162-.277.445-.854.43-1.636a3.065 3.065 0 0 0-1.023-2.223 3.166 3.166 0 0 0-1.269-.686 3.557 3.557 0 0 0-.7-.116 5.172 5.172 0 0 0-.834.019c-.814.078-2.096.342-3.743.715-1.715.389-4.031.944-7.026 1.668l.704 2.916.705 2.916a544.324 544.324 0 0 1 6.942-1.648c1.735-.393 2.628-.559 2.989-.594.081-.008.013.005-.137-.005a2.564 2.564 0 0 1-.486-.084 2.858 2.858 0 0 1-1.142-.626 2.936 2.936 0 0 1-.979-2.132 2.885 2.885 0 0 1 .391-1.516 2.513 2.513 0 0 1 .526-.638c.039-.032-.04.033-.374.232-.295.175-.685.394-1.18.667l1.445 2.628Zm-8.7.8-.738-2.908c-12.51 3.177-22.636 5.264-46.638 9.964l.576 2.944.577 2.944c23.998-4.699 34.272-6.814 46.962-10.036l-.739-2.908Zm-46.8 10-.577-2.944c-10.161 1.993-21.695 4.417-25.737 5.557l.814 2.887.815 2.887c3.757-1.059 15.024-3.436 25.263-5.443l-.578-2.944Zm-25.5 5.5-.763-2.901c-3.789.997-10.78 2.794-15.479 3.994l.742 2.907.743 2.907c4.7-1.2 11.71-3.003 15.521-4.006l-.764-2.901Zm-15.5 4-.799-2.891c-4.716 1.304-10.805 3.378-13.53 4.854l1.429 2.638 1.429 2.637c2.075-1.124 7.587-3.051 12.271-4.347l-.8-2.891Zm-12.9 4.601-1.429-2.638a44.364 44.364 0 0 1-3.198 1.576c-.46.201-.825.346-1.08.434a2.863 2.863 0 0 1-.21.067c-.062.015.119-.04.417-.04v6c.727 0 1.454-.252 1.757-.357.458-.159.98-.37 1.52-.607a50.398 50.398 0 0 0 3.652-1.797l-1.429-2.638Zm-5.5 2.399-.001-3c-.82 0-1.568.26-2.047.452-.55.221-1.131.515-1.711.84-1.164.653-2.536 1.552-4.003 2.589-2.945 2.081-6.474 4.86-9.859 7.714-3.385 2.853-6.684 5.83-9.157 8.317-1.23 1.236-2.308 2.403-3.098 3.403a12.314 12.314 0 0 0-1.054 1.527c-.225.398-.67 1.241-.67 2.259h6c0 .63-.249.945-.108.695.078-.137.243-.386.54-.761.585-.741 1.481-1.724 2.643-2.892 2.311-2.322 5.469-5.177 8.771-7.961 3.301-2.783 6.691-5.448 9.455-7.401 1.388-.981 2.569-1.747 3.475-2.255a9.183 9.183 0 0 1 1.009-.505c.293-.117.173-.021-.183-.021l-.002-3Zm-28.6 24.101-3 .003a3.143 3.143 0 0 0 1.809 2.862 3.402 3.402 0 0 0 2.021.257c.685-.114 1.336-.414 1.763-.627.974-.488 2.192-1.263 3.441-2.148l-1.734-2.448-1.734-2.448c-1.15.815-2.082 1.39-2.657 1.677-.348.174-.323.119-.068.076.067-.011.736-.138 1.524.233a2.854 2.854 0 0 1 1.635 2.559l-3 .004Zm4.3-2.101 1.808 2.394c9.321-7.04 24.465-16.828 30.751-20.019l-1.359-2.675-1.358-2.675c-6.715 3.409-22.171 13.421-31.65 20.581l1.808 2.394Zm31.2-20.3 1.342 2.684c8.227-4.114 12.793-5.452 33.787-9.951l-.629-2.933-.628-2.933c-21.006 4.501-26.24 5.963-35.213 10.45l1.341 2.683Zm34.5-10.2.644 2.93c9.051-1.989 18.142-4.008 20.12-4.529l-.764-2.901-.763-2.901c-1.822.479-10.731 2.46-19.88 4.471l.643 2.93Zm20-4.5.904 2.861c1.748-.552 11.058-2.712 20.767-4.937l-.671-2.924-.67-2.924c-9.491 2.175-19.181 4.415-21.233 5.063l.903 2.861Zm21-5 .672 2.924c9.807-2.252 16.896-3.991 22.102-5.477 5.173-1.476 8.661-2.748 11.163-4.113l-1.437-2.634-1.436-2.633c-1.898 1.035-4.861 2.162-9.937 3.611-5.045 1.439-12.005 3.15-21.798 5.398l.671 2.924Zm85.5-112.898 2.66-1.389c-1.882-3.603-5.321-8.454-8.376-12.235-1.534-1.898-3.044-3.617-4.284-4.825-.601-.584-1.25-1.16-1.877-1.568a4.702 4.702 0 0 0-1.36-.626c-.554-.145-1.915-.337-3.08.723l2.018 2.219 2.018 2.22a2.701 2.701 0 0 1-2.474.643c-.325-.085-.478-.204-.394-.149.129.083.445.333.963.838.997.97 2.337 2.482 3.803 4.297 2.945 3.644 6.106 8.143 7.724 11.241l2.659-1.389ZM603.202 204.4l-2.123-2.119a3.157 3.157 0 0 0-.871 1.694 3.648 3.648 0 0 0-.045.85c.022.381.096.743.16 1.014.135.569.353 1.247.605 1.949.513 1.429 1.274 3.262 2.148 5.165l2.726-1.253 2.726-1.252c-.825-1.797-1.514-3.464-1.952-4.685a13.73 13.73 0 0 1-.414-1.307c-.033-.139-.017-.112-.01.016.004.06.014.261-.034.536-.038.216-.18.898-.793 1.512l-2.123-2.12Zm2.6 7.3-2.732 1.239c4.223 9.309 7.57 22.969 9.35 38.895l2.982-.333 2.981-.333c-1.819-16.274-5.271-30.615-9.849-40.707l-2.732 1.239Zm9.6 39.801-2.98.348c.452 3.869.956 7.798 1.423 11.009.45 3.085.906 5.813 1.296 7.046l2.86-.903 2.861-.903c-.21-.667-.604-2.839-1.079-6.104-.457-3.139-.954-7.01-1.401-10.841l-2.98.348Zm2.599 17.5-2.86.903c.534 1.691 1.599 6.878 2.515 11.661l2.946-.564 2.947-.564c-.885-4.617-2.021-10.23-2.687-12.339l-2.861.903Zm2.601 12-2.946.564c.452 2.364.908 4.619 1.291 6.356.191.865.369 1.627.524 2.219.077.294.156.576.234.82.049.151.185.584.423.982l2.574-1.542 2.573-1.541c.163.272.206.464.144.271a11.79 11.79 0 0 1-.143-.508 56.987 56.987 0 0 1-.47-1.993c-.366-1.663-.81-3.857-1.257-6.192l-2.947.564Zm2.1 9.399-2.573 1.544a3.372 3.372 0 0 0 2.696 1.646c.967.06 1.729-.297 2.158-.555.88-.528 1.543-1.344 1.991-2.091l-2.572-1.544-2.573-1.543c-.151.253-.189.187.067.033.116-.069.584-.333 1.298-.289a2.638 2.638 0 0 1 2.08 1.256l-2.572 1.543Zm1.7-1 2.591 1.512c.349-.599.508-1.272.592-1.673.105-.495.19-1.073.263-1.703.146-1.265.262-2.929.351-4.941.178-4.035.253-9.641.203-16.616l-3 .022-3 .022c.05 6.925-.025 12.417-.197 16.307-.086 1.951-.195 3.456-.318 4.518-.061.535-.121.911-.173 1.154-.071.337-.078.185.096-.113l2.592 1.511Zm1-23.399h3c0-12.2-.32-20.243-1.524-26.873-1.222-6.737-3.335-11.908-6.715-18.411l-2.662 1.384-2.662 1.383c3.221 6.197 5.058 10.777 6.136 16.715 1.097 6.044 1.427 13.602 1.427 25.802h3ZM443.001 195.8h3c0-.705-.204-1.67-.989-2.464-.75-.759-1.648-.97-2.227-1.02-1.038-.089-2.026.249-2.623.484-1.376.541-3.037 1.525-4.622 2.614a45.948 45.948 0 0 0-4.814 3.809c-1.436 1.312-2.849 2.807-3.703 4.241l2.578 1.535 2.578 1.535c.396-.666 1.284-1.684 2.594-2.881a39.828 39.828 0 0 1 4.165-3.294c1.452-.997 2.673-1.682 3.419-1.975.463-.182.346-.053-.085-.09a2.474 2.474 0 0 1-1.527-.74 2.527 2.527 0 0 1-.744-1.754h3Zm-13.4 9.199-2.622-1.457c-.537.966-1.018 1.978-1.263 2.833a5.318 5.318 0 0 0-.168.814c-.032.267-.068.767.079 1.34.16.625.628 1.604 1.77 2.115 1.023.458 1.943.238 2.353.101l-.949-2.846-.948-2.846a2.767 2.767 0 0 1 1.995.115 2.833 2.833 0 0 1 1.59 1.87c.116.452.076.79.068.862-.013.11-.03.158-.02.123.055-.195.274-.733.738-1.567l-2.623-1.457Zm-.8 2.9.999 2.829c.656-.231 1.363-.71 1.806-1.017a47.498 47.498 0 0 0 1.967-1.456 146.857 146.857 0 0 0 4.908-4.006c1.69-1.438 3.348-2.902 4.597-4.079a32.355 32.355 0 0 0 1.595-1.59c.204-.223.427-.48.618-.744.093-.128.224-.322.345-.558.078-.151.362-.709.365-1.466l-3-.012-2.999-.012c.002-.701.263-1.184.292-1.242.073-.143.135-.225.136-.227.006-.008-.041.055-.183.21-.271.296-.704.728-1.284 1.275-1.148 1.082-2.722 2.473-4.368 3.873a140.045 140.045 0 0 1-4.694 3.833c-.685.53-1.266.961-1.708 1.267-.566.392-.621.375-.391.294l.999 2.828Zm37.3-28.9-1.4-2.653c-1.947 1.028-6.416 3.833-10.532 6.532a257.465 257.465 0 0 0-5.772 3.883c-1.559 1.086-2.986 2.123-3.659 2.76l2.063 2.178 2.064 2.178c.276-.262 1.287-1.026 2.962-2.193a252.103 252.103 0 0 1 5.631-3.788c4.159-2.727 8.39-5.371 10.043-6.244l-1.4-2.653Zm-19.3 12.7-2.007-2.23a12.274 12.274 0 0 0-1.7 1.874 7.284 7.284 0 0 0-.653 1.076c-.154.318-.44.973-.44 1.78h6c0 .317-.059.546-.089.646-.033.11-.064.174-.069.185-.008.017.02-.042.116-.174.188-.261.491-.604.849-.927l-2.007-2.23Zm-1.8 2.5h-3c0 .58.154 1.277.617 1.917a3.278 3.278 0 0 0 1.519 1.145c.84.311 1.622.221 1.976.167.831-.126 1.709-.465 2.445-.805l-1.257-2.724-1.257-2.723c-.563.259-.835.32-.829.32a1.5 1.5 0 0 1 .251-.013c.129.004.408.023.753.151a2.75 2.75 0 0 1 1.782 2.565h-3Zm2.3-.3 1.395 2.657c2.217-1.165 6.683-4.19 10.712-7.1a175.39 175.39 0 0 0 5.67-4.254c1.534-1.21 2.969-2.408 3.687-3.234l-2.264-1.969-2.263-1.969c-.282.325-1.247 1.177-2.875 2.46a168.308 168.308 0 0 1-5.468 4.102c-4.072 2.941-8.206 5.715-9.988 6.651l1.394 2.656Zm19.2-13.9 2.264 1.969 2-2.3-2.264-1.969-2.263-1.968-2 2.299 2.263 1.969Zm2-2.3-1.428-2.638-2.4 1.3 1.428 2.638 1.429 2.638 2.4-1.3-1.429-2.638Zm92.1 3.801 1.996-2.24c-2.521-2.246-5.718-4.335-8.61-5.808-1.449-.738-2.892-1.357-4.195-1.763-1.16-.361-2.702-.718-4.104-.426l.612 2.937.612 2.937c-.202.042.069-.039 1.096.281.886.275 2.006.744 3.256 1.38 2.508 1.278 5.262 3.088 7.341 4.942l1.996-2.24Zm-14.301-7.3-.456-2.965a4.2 4.2 0 0 0-1.357.44 3.348 3.348 0 0 0-1.617 1.932c-.311.984-.088 1.84.115 2.335.202.494.484.884.7 1.15.782.962 2.223 2.086 3.959 3.34l1.757-2.432 1.756-2.432a40.924 40.924 0 0 1-2.033-1.545c-.52-.428-.731-.651-.782-.715-.028-.034.087.094.195.36.11.266.314.929.054 1.75a2.66 2.66 0 0 1-1.252 1.536c-.33.178-.579.211-.582.211l-.457-2.965Zm3.101 3.8-1.622 2.524c2.728 1.753 6.72 4.284 8.838 5.287l1.284-2.711 1.284-2.712c-1.682-.797-5.29-3.065-8.162-4.912L549.401 178Zm8.5 5.1-1.342 2.683c1.514.757 2.832 1.326 3.902 1.668.528.169 1.098.316 1.658.375.413.045 1.477.128 2.491-.496a3.28 3.28 0 0 0 1.394-1.748 3.41 3.41 0 0 0 .095-1.812c-.171-.804-.593-1.444-.867-1.82-.61-.835-1.552-1.758-2.674-2.724l-1.957 2.274-1.957 2.274c1.028.884 1.548 1.448 1.742 1.714.126.173-.058-.014-.154-.465a2.575 2.575 0 0 1 .087-1.358c.22-.653.66-1.146 1.147-1.446.432-.265.817-.331.988-.351.184-.021.297-.008.302-.008.005.001-.135-.018-.469-.124-.651-.208-1.658-.626-3.044-1.32l-1.342 2.684Z" mask="url(#b)"/>
  <path fill="#fff" d="M729 631V160.091h90.939v47.091h3.368S853.62 150 931.086 150c101.044 0 151.564 87.455 151.564 185s-50.52 185-151.564 185c-74.098 0-104.411-47.091-104.411-47.091h-3.368V631H729Zm90.939-296c0 63.236 26.945 114.364 84.202 114.364 57.258 0 84.203-51.128 84.203-114.364 0-63.236-26.945-114.364-84.203-114.364-57.257 0-84.202 51.128-84.202 114.364Zm299.871 0c0-102.255 59.95-185 175.14-185 115.19 0 168.4 82.745 168.4 185 0 8.073-.67 20.182-.67 20.182h-247.89c4.04 53.818 26.94 94.182 83.53 94.182 57.26 0 67.36-53.819 67.36-53.819h94.31S1439.78 520 1294.95 520c-117.88 0-175.14-82.745-175.14-185Zm175.14-114.364c-46.48 0-69.38 30.946-77.47 74h148.87c-6.06-43.054-24.92-74-71.4-74Zm218.59 289.273V160.091h90.93v57.182h3.37S1638.15 150 1715.62 150c97.68 0 124.62 63.909 124.62 144.636v215.273h-94.31V314.818c0-60.545-16.84-87.454-60.62-87.454-50.52 0-77.47 30.272-77.47 100.909v181.636h-94.3ZM284.503 151.632c-4.69-2.171-6.32-8.165-4.425-15.473 1.43-5.518 2.977-7.186 12.036-13.274 10.749-7.082 16.378-14.059 22.813-27.83 5.711-12.209 5.341-12.623-19.119-18.964-25.803-6.688-26.841-7.594-23.362-21.017 2.127-8.203 2.922-9.43 6.292-10.148 2.022-.43 14.561 1.546 27.879 4.203l24.173 4.993 1.679-8.32c.862-4.551.933-12.81.309-18.383-1.431-11.672 1.181-24.206 5.689-26.858 3.756-2.21 23.372 2.557 26.664 6.435 1.221 1.43 2.53 9.888 3.127 18.638 1.327 19.444 2.36 25.282 4.448 25.824.895.232 9.352-1.078 18.748-2.94 15.986-3.337 17.411-3.922 22.432-9.783l5.436-6.231 11.6 2.53c10.705 2.297 11.821 2.904 14.362 7.224 4.199 7.137 1.282 15.931-7.638 23.328-7.64 6.137-18.82 11.198-27.912 12.501-3.144.459-9.468 1.525-14.037 2.57-4.678.856-9.28 1.414-10.175 1.182-1.044-.27-2.392.017-3.032.646-1.884 1.74 5.983 21.129 13.761 33.492l7.408 11.948-2.679 7.264c-3.866 10.617-7.507 12.379-18.693 9.479-7.308-1.894-10.098-3.413-13.799-7.556-2.441-2.861-4.397-5.756-4.204-6.502.503-1.938-15.992-21.813-18.677-22.509-1.641-.425-2.734.724-3.391 3.259-1.006 3.878-11.882 21.273-18.267 29.327-2.077 2.486-8.098 7.292-13.395 10.535-8.866 5.342-9.916 5.707-16.29 3.895-3.69-1.116-8.049-2.723-9.761-3.485Z"/>
</svg>