<svg width="200" height="201" viewBox="0 0 200 201" fill="none" xmlns="http://www.w3.org/2000/svg">
<path d="M100.164 56.5113C94.4069 56.5113 88.706 57.649 83.387 59.8595C78.0678 62.0702 73.2347 65.3109 69.1636 69.3956C65.0925 73.4803 61.8626 78.3297 59.6594 83.6667C57.4562 89.0035 56.3223 94.7235 56.3223 100.5C56.3223 106.277 57.4561 111.997 59.6594 117.334C61.8626 122.671 65.0925 127.521 69.1636 131.605C73.2345 135.69 78.0673 138.93 83.3861 141.141C88.7053 143.351 94.4067 144.489 100.164 144.489V152.837C93.3142 152.837 86.5312 151.484 80.2026 148.854C73.874 146.224 68.1237 142.368 63.28 137.508C58.4363 132.648 54.5942 126.878 51.9728 120.529C49.3514 114.179 48.002 107.373 48.002 100.5C48.002 93.6271 49.3514 86.8215 51.9728 80.4717C54.5942 74.1219 58.4363 68.3523 63.28 63.4923C68.1237 58.6324 73.874 54.7774 80.2026 52.1472C86.5312 49.517 93.3141 48.163 100.164 48.163V56.5113Z" fill="#0B0C0E"/>
<path d="M100.164 32.4298C91.2549 32.4298 82.4331 34.1907 74.2021 37.6115C65.9711 41.0323 58.492 46.0461 52.1922 52.3669C45.8925 58.6878 40.8948 66.1919 37.4854 74.4505C34.0759 82.7092 32.3209 91.5613 32.3209 100.5C32.3209 109.439 34.076 118.291 37.4854 126.55C40.8948 134.808 45.8924 142.312 52.1922 148.633C58.492 154.954 65.9711 159.969 74.2021 163.389C82.4331 166.81 91.255 168.57 100.164 168.57L100.164 176.919C90.1622 176.919 80.2583 174.942 71.0178 171.102C61.7773 167.261 53.381 161.633 46.3087 154.537C39.2363 147.44 33.6264 139.016 29.7988 129.745C25.9713 120.473 24.0006 110.536 24.0006 100.5C24.0006 90.4651 25.9713 80.5279 29.7988 71.2564C33.6264 61.9849 39.2363 53.5605 46.3087 46.4644C53.3811 39.3683 61.7772 33.7388 71.0178 29.8984C80.2583 26.058 90.1623 24.0815 100.164 24.0815L100.164 32.4298Z" fill="#0B0C0E"/>
<path d="M100.164 8.34823C88.1031 8.34823 76.1602 10.7317 65.0172 15.3627C53.8742 19.9938 43.7493 26.7819 35.2208 35.3389C26.6923 43.896 19.927 54.0548 15.3114 65.2352C10.6958 76.4156 8.32036 88.3985 8.32033 100.5C8.32033 112.602 10.6958 124.585 15.3114 135.766C19.9269 146.946 26.6924 157.105 35.2208 165.662C43.7493 174.219 53.8743 181.006 65.0172 185.637C76.1602 190.268 88.1031 192.652 100.164 192.652V201C87.0104 201 73.9854 198.401 61.8329 193.35C49.6804 188.3 38.6384 180.897 29.3373 171.564C20.0362 162.232 12.6577 151.153 7.62399 138.96C2.59034 126.767 -5.74965e-07 113.698 0 100.5C2.55819e-05 87.3022 2.59029 74.2334 7.62399 62.0402C12.6577 49.847 20.0362 38.768 29.3373 29.4357C38.6384 20.1034 49.6805 12.701 61.8329 7.65037C73.9854 2.59976 87.0104 -5.76897e-07 100.164 0V8.34823Z" fill="#0B0C0E"/>
<path d="M116.613 59.8595C111.294 57.649 105.593 56.5113 99.8359 56.5113L99.8359 0C112.99 0 126.015 2.59976 138.167 7.65037C150.32 12.701 161.362 20.1034 170.663 29.4357C179.964 38.768 187.342 49.847 192.376 62.0402C197.41 74.2334 200 87.3022 200 100.5C200 113.698 197.41 126.767 192.376 138.96C187.342 151.153 179.964 162.232 170.663 171.564C161.362 180.897 150.32 188.3 138.167 193.35C126.015 198.401 112.99 201 99.8359 201V144.489C105.593 144.489 111.295 143.351 116.614 141.141C121.933 138.93 126.765 135.69 130.836 131.605C134.907 127.521 138.137 122.671 140.341 117.334C142.544 111.997 143.678 106.277 143.678 100.5C143.678 94.7235 142.544 89.0035 140.341 83.6667C138.137 78.3297 134.908 73.4803 130.836 69.3956C126.765 65.3109 121.932 62.0702 116.613 59.8595Z" fill="#0B0C0E"/>
</svg>
