<svg width="745" height="529" viewBox="0 0 745 529" fill="none" xmlns="http://www.w3.org/2000/svg">
<path d="M420.154 173.077H34.7502L227.452 6L420.154 173.077Z" fill="#FFF"/>
<path d="M4 173.057H449.323V217.921H4V173.057Z" fill="#FFF"/>
<path d="M4 480.563H449.323V524.492H4V480.563Z" fill="#FFF"/>
<path d="M332.624 444.111H422.249V480.563H332.624V444.111Z" fill="#FFF"/>
<path d="M332.624 217.921H422.249V253.439H332.624V217.921Z" fill="#FFF"/>
<path d="M342.894 253.439H412.913V288.021H342.894V253.439Z" fill="#FFF"/>
<path d="M351.296 288.021H404.511V407.659H351.296V288.021Z" fill="#FFF"/>
<path d="M342.894 407.659H412.913V444.111H342.894V407.659Z" fill="#FFF"/>
<path d="M31.0742 444.111H120.699V480.563H31.0742V444.111Z" fill="#FFF"/>
<path d="M31.0742 217.921H120.699V253.439H31.0742V217.921Z" fill="#FFF"/>
<path d="M40.4101 253.439H110.429V288.021H40.4101V253.439Z" fill="#FFF"/>
<path d="M47.8788 288.021H101.094V407.659H47.8788V288.021Z" fill="#FFF"/>
<path d="M40.4101 407.659H110.429V444.111H40.4101V407.659Z" fill="#FFF"/>
<path d="M420.154 173.077H34.7502L227.452 6L420.154 173.077Z" stroke="currentColor" stroke-width="8"/>
<path d="M4 173.057H449.323V217.921H4V173.057Z" stroke="currentColor" stroke-width="8"/>
<path d="M4 480.563H449.323V524.492H4V480.563Z" stroke="currentColor" stroke-width="8"/>
<path d="M332.624 444.111H422.249V480.563H332.624V444.111Z" stroke="currentColor" stroke-width="8"/>
<path d="M332.624 217.921H422.249V253.439H332.624V217.921Z" stroke="currentColor" stroke-width="8"/>
<path d="M342.894 253.439H412.913V288.021H342.894V253.439Z" stroke="currentColor" stroke-width="8"/>
<path d="M351.296 288.021H404.511V407.659H351.296V288.021Z" stroke="currentColor" stroke-width="8"/>
<path d="M342.894 407.659H412.913V444.111H342.894V407.659Z" stroke="currentColor" stroke-width="8"/>
<path d="M31.0742 444.111H120.699V480.563H31.0742V444.111Z" stroke="currentColor" stroke-width="8"/>
<path d="M31.0742 217.921H120.699V253.439H31.0742V217.921Z" stroke="currentColor" stroke-width="8"/>
<path d="M40.4101 253.439H110.429V288.021H40.4101V253.439Z" stroke="currentColor" stroke-width="8"/>
<path d="M47.8788 288.021H101.094V407.659H47.8788V288.021Z" stroke="currentColor" stroke-width="8"/>
<path d="M40.4101 407.659H110.429V444.111H40.4101V407.659Z" stroke="currentColor" stroke-width="8"/>
<path d="M742 358.904C742 358.904 694.487 411.676 544.574 347.104C492.208 324.548 468.959 331.692 455.605 347.105M455.605 347.105C432.443 373.837 457.76 397.329 484.55 387.041C511.34 376.753 490.897 344.345 455.605 347.105ZM455.605 347.105C400.345 339.942 357.491 354.895 321.261 358.904C268.333 364.762 250 347.105 250 347.105" stroke="currentColor" stroke-width="8" stroke-dasharray="20 20"/>
<path d="M207.187 281.72C207.102 279.326 212.344 277.921 213.467 280.038C220.022 292.387 230.231 308.159 242.457 315.217C254.682 322.276 273.446 323.231 287.418 322.733C289.813 322.648 291.217 327.889 289.101 329.013C276.751 335.568 260.98 345.777 253.921 358.003C246.863 370.228 245.907 388.991 246.405 402.964C246.49 405.359 241.249 406.763 240.125 404.647C233.571 392.297 223.361 376.525 211.136 369.467C198.91 362.409 180.147 361.453 166.174 361.951C163.78 362.036 162.375 356.795 164.492 355.671C176.841 349.116 192.613 338.907 199.671 326.682C206.73 314.456 207.686 295.693 207.187 281.72Z" fill="#FFF" stroke="currentColor" stroke-width="8"/>
</svg>
