<svg width="711" height="496" viewBox="0 0 711 496" fill="none" xmlns="http://www.w3.org/2000/svg">
<rect x="61.8281" y="38.0156" width="645.173" height="453.548" fill="#FFF" stroke="currentColor" stroke-width="8"/>
<rect x="354.367" y="4" width="319.752" height="453.548" fill="#FFF" stroke="currentColor" stroke-width="8"/>
<line x1="572.233" y1="110.383" x2="576.769" y2="322.417" stroke="currentColor" stroke-width="8" stroke-dasharray="20 20"/>
<line x1="461.013" y1="220.974" x2="575.534" y2="330.96" stroke="currentColor" stroke-width="8" stroke-dasharray="20 20"/>
<line x1="455.699" y1="220.778" x2="561.149" y2="133.47" stroke="currentColor" stroke-width="8" stroke-dasharray="20 20"/>
<path d="M570.271 96.0475C571.461 93.6049 578.355 94.7669 578.678 97.4646C579.743 106.338 582.01 116.111 586.713 122.721C591.416 129.331 599.906 134.677 607.94 138.591C610.383 139.781 609.221 146.675 606.523 146.999C597.65 148.063 587.877 150.331 581.267 155.034C574.657 159.737 569.311 168.227 565.396 176.261C564.206 178.703 557.313 177.541 556.989 174.843C555.925 165.97 553.657 156.197 548.954 149.587C544.251 142.977 535.761 137.631 527.727 133.717C525.285 132.527 526.447 125.633 529.144 125.309C538.017 124.245 547.791 121.977 554.401 117.274C561.011 112.571 566.356 104.081 570.271 96.0475Z" fill="#FFF" stroke="currentColor" stroke-width="8"/>
<path d="M469.922 177.585C471.476 175.356 477.812 177.617 477.605 180.326C476.793 190.933 477.12 203.426 481.355 212.359C485.59 221.292 495.055 229.454 503.78 235.539C506.009 237.093 503.749 243.429 501.039 243.222C490.432 242.41 477.939 242.737 469.006 246.972C460.073 251.207 451.912 260.672 445.826 269.398C444.272 271.626 437.936 269.366 438.143 266.657C438.955 256.049 438.628 243.556 434.393 234.623C430.158 225.69 420.693 217.529 411.968 211.443C409.739 209.889 412 203.553 414.709 203.76C425.316 204.572 437.809 204.245 446.742 200.01C455.675 195.775 463.836 186.311 469.922 177.585Z" fill="#FFF" stroke="currentColor" stroke-width="8"/>
<path d="M551.864 284.888C551.818 280.812 562.5 276.953 565.07 280.116C570.833 287.208 577.67 293.843 584.967 297.266C592.265 300.69 601.737 301.707 610.875 301.606C614.95 301.561 618.81 312.242 615.647 314.813C608.555 320.575 601.92 327.412 598.496 334.71C595.072 342.007 594.056 351.48 594.157 360.617C594.202 364.692 583.52 368.552 580.95 365.389C575.187 358.297 568.35 351.662 561.053 348.238C553.756 344.815 544.283 343.798 535.145 343.899C531.07 343.944 527.211 333.262 530.374 330.692C537.466 324.929 544.101 318.093 547.524 310.795C550.948 303.498 551.965 294.025 551.864 284.888Z" fill="#FFF" stroke="currentColor" stroke-width="8"/>
<rect x="4" y="4" width="319.752" height="453.548" fill="#FFF" stroke="currentColor" stroke-width="8"/>
<path d="M384.983 67.5C384.983 83.1555 364.677 95.8468 339.628 95.8468C314.579 95.8468 294.273 83.1555 294.273 67.5" stroke="currentColor" stroke-width="8"/>
<path d="M384.983 151.406C384.983 167.062 364.677 179.753 339.628 179.753C314.579 179.753 294.273 167.062 294.273 151.406" stroke="currentColor" stroke-width="8"/>
<path d="M384.983 235.312C384.983 250.968 364.677 263.659 339.628 263.659C314.579 263.659 294.273 250.968 294.273 235.312" stroke="currentColor" stroke-width="8"/>
<path d="M384.983 319.219C384.983 334.874 364.677 347.566 339.628 347.566C314.579 347.566 294.273 334.874 294.273 319.219" stroke="currentColor" stroke-width="8"/>
<path d="M384.983 403.125C384.983 418.78 364.677 431.472 339.628 431.472C314.579 431.472 294.273 418.78 294.273 403.125" stroke="currentColor" stroke-width="8"/>
</svg>
