<svg width="774" height="487" viewBox="0 0 774 487" fill="none" xmlns="http://www.w3.org/2000/svg">
<ellipse cx="436.745" cy="171.919" rx="118.917" ry="118.919" fill="#FFF" stroke="currentColor" stroke-width="8"/>
<path d="M479.75 114.414L440.61 180.654H474.063V185.337H439.94V200.392H474.063V205.075H439.94V229.162H434.588V205.075H400.465V200.392H434.588V185.337H400.465V180.654H433.919L394.945 114.414H400.8L437.097 176.304H437.431L473.729 114.414H479.75Z" fill="currentColor" stroke="currentColor" stroke-width="4"/>
<ellipse cx="360.753" cy="364.084" rx="118.917" ry="118.919" fill="#FFF" stroke="currentColor" stroke-width="8"/>
<path d="M367.522 418.858C388.264 418.858 399.471 401.797 400.474 381.892H405.827C403.318 406.648 390.773 423.542 367.522 423.542C344.439 423.542 329.218 405.644 325.872 376.873H315V372.19H325.538C325.371 369.681 325.203 367.004 325.203 364.328C325.203 361.652 325.371 358.975 325.538 356.466H315V351.783H325.872C329.218 323.012 344.439 305.281 367.522 305.281C390.605 305.281 403.15 322.176 405.827 341.579H400.474C398.467 326.023 388.096 309.965 367.522 309.965C346.948 309.965 334.236 326.357 331.225 351.783H372.373V356.466H330.89C330.723 358.975 330.556 361.652 330.556 364.328C330.556 367.004 330.723 369.681 330.89 372.19H372.373V376.873H331.225C334.236 402.466 346.948 418.858 367.522 418.858Z" fill="currentColor" stroke="currentColor" stroke-width="4"/>
<ellipse cx="650.488" cy="171.919" rx="118.917" ry="118.919" fill="#FFF" stroke="currentColor" stroke-width="8"/>
<path d="M691.47 198.703C691.47 215.096 679.259 229.147 654.336 229.816V242.194H648.984V229.649C624.73 228.478 610.177 214.092 608.672 191.176H614.024C615.53 210.245 626.402 223.794 648.984 224.965V171.438C627.908 168.762 613.355 158.057 613.355 142.166C613.355 124.602 628.577 113.228 648.984 112.726V101.352H654.336V112.893C675.412 113.897 686.953 124.268 688.292 141.664H682.939C681.434 128.282 674.074 118.581 654.336 117.577V167.256C682.604 171.271 691.47 181.307 691.47 198.703ZM618.708 142.166C618.708 155.715 630.082 163.075 648.984 166.42V117.41C630.751 117.911 618.708 127.613 618.708 142.166ZM654.336 225.132C676.583 224.463 685.95 212.42 686.117 198.703C686.284 182.645 677.921 175.453 654.336 172.107V225.132Z" fill="currentColor" stroke="currentColor" stroke-width="4"/>
<ellipse cx="122.917" cy="219.49" rx="118.917" ry="118.919" fill="#FFF" stroke="currentColor" stroke-width="8"/>
<path d="M159.316 264.715L162.327 268.395C157.476 273.413 151.956 278.933 141.419 278.933C128.706 278.933 122.015 268.562 110.641 268.562C103.449 268.562 94.9179 271.573 86.889 277.093L83.7109 272.911C93.4125 264.882 99.936 253.173 99.936 239.289C99.936 234.606 98.5978 230.089 96.9251 225.573H83.7109V221.224H95.0852C91.0707 212.359 86.22 203.159 86.22 192.119C86.22 178.403 97.4269 160.672 123.521 160.672C148.778 160.672 160.654 177.232 160.654 196.133H155.302C155.302 176.563 142.422 165.355 123.521 165.355C106.459 165.355 91.5725 175.224 91.5725 193.29C91.5725 203.828 96.7579 212.359 100.605 221.224H130.546V225.573H102.445C104.118 229.922 105.289 234.439 105.289 239.289C105.289 249.995 101.107 261.035 93.5798 268.562L93.747 268.896C98.096 266.22 104.787 263.878 110.641 263.878C123.521 263.878 131.55 274.249 141.419 274.249C149.447 274.249 154.131 269.9 159.316 264.715Z" fill="currentColor" stroke="currentColor" stroke-width="4"/>
<path d="M181.231 18.3691C181.773 16.0349 187.227 16.0349 187.769 18.3691C190.864 31.7017 196.525 49.0402 206.242 58.7577C215.96 68.4752 233.298 74.1358 246.631 77.2312C248.965 77.7731 248.965 83.2269 246.631 83.7688C233.298 86.8642 215.96 92.5248 206.242 102.242C196.525 111.96 190.864 129.298 187.769 142.631C187.227 144.965 181.773 144.965 181.231 142.631C178.136 129.298 172.475 111.96 162.758 102.242C153.04 92.5248 135.702 86.8642 122.369 83.7688C120.035 83.2269 120.035 77.7731 122.369 77.2312C135.702 74.1358 153.04 68.4752 162.758 58.7577C172.475 49.0402 178.136 31.7017 181.231 18.3691Z" fill="#FFF" stroke="currentColor" stroke-width="8"/>
</svg>
