<svg width="333" height="413" viewBox="0 0 333 413" fill="none" xmlns="http://www.w3.org/2000/svg">
<path d="M5 46.3509L166.404 6L327.807 46.3509V238.582C327.807 266.691 314.674 293.186 292.304 310.206L166.404 406L40.503 310.206C18.133 293.185 5 266.691 5 238.582V46.3509Z" fill="#FFF9F2" stroke="#1C1C1C" stroke-width="10"/>
<path d="M80.4453 181.43C80.4453 159.631 91.9872 137.57 119.634 137.57C141.376 137.57 155.602 154.641 166.875 174.076C178.685 153.328 190.496 137.57 211.432 137.57C238.005 137.57 250.621 157.53 250.621 181.43C250.621 204.542 238.274 225.29 211.969 225.29C191.033 225.29 177.612 207.956 166.607 188.784C153.723 211.107 141.376 225.29 119.902 225.29C92.2556 225.29 80.4453 202.966 80.4453 181.43ZM89.0346 181.43C89.0346 199.552 97.6239 217.936 119.902 217.936C138.691 217.936 149.16 204.016 162.044 181.693C150.502 160.945 138.423 144.924 119.634 144.924C97.3555 144.924 89.0346 163.046 89.0346 181.43ZM211.432 144.924C193.448 144.924 183.785 159.894 171.438 181.43C182.98 201.653 193.985 217.936 211.969 217.936C233.711 217.936 242.031 199.552 242.031 181.43C242.031 161.995 233.711 144.924 211.432 144.924Z" fill="#21FFD3" stroke="#1C1C1C" stroke-width="2"/>
</svg>
