<svg width="723" height="803" viewBox="0 0 723 803" fill="none" xmlns="http://www.w3.org/2000/svg">
<path d="M285.407 802.43C285.171 802.076 280.098 801.25 274.316 800.542C262.989 799.245 247.061 796.295 241.28 794.526C225.587 789.807 212.845 785.442 205.883 782.257C195.146 777.42 172.965 763.735 167.183 758.19C151.373 743.561 139.574 730.466 132.731 720.321C129.427 715.484 126.596 711.237 126.242 710.883C124.118 708.995 108.19 674.547 105.594 666.643C103.942 661.452 102.054 656.261 101.464 655.2C100.756 654.02 100.284 652.368 100.284 651.306C100.284 649.301 97.0987 639.155 95.6829 636.56C95.0929 635.498 94.267 632.313 93.795 629.481C93.3231 626.532 92.2612 621.459 91.3173 618.274C90.3734 614.971 89.0755 607.303 88.4856 601.168C86.2438 580.051 86.0079 579.461 77.2768 570.023C74.0911 566.602 62.5283 551.619 59.4606 546.9C57.5728 543.951 55.803 541.356 55.449 541.002C50.2576 536.047 34.6832 505.138 26.3061 483.195C8.60791 436.949 6.0122 375.839 19.4628 320.864C21.2326 313.786 23.3564 306.235 24.3003 303.994C26.5421 298.567 26.4241 295.736 23.5924 290.899C22.2945 288.657 19.8168 283.82 18.1649 280.281C4.71433 251.496 1.05672 237.103 0.938732 212.447C0.702756 184.015 4.24239 169.151 13.6814 158.769C16.0412 156.174 19.9347 153.106 22.2945 151.927C27.7219 149.331 40.9366 149.095 42.4704 151.573C43.8862 153.932 45.1841 168.679 44.3582 171.51C43.8863 172.808 40.9366 175.521 37.8689 177.527C30.0817 182.6 27.8399 189.324 27.8399 208.908C27.7219 224.362 30.4356 237.811 35.7451 248.9L38.5768 254.799L39.4027 247.367C40.2286 240.17 40.7006 238.519 44.8301 228.963C46.01 226.368 47.3079 222.946 47.7798 221.295C48.2518 219.761 52.0274 211.975 56.157 203.953C66.6579 183.543 83.0582 163.134 97.9246 151.927C100.166 150.275 102.644 148.269 103.352 147.444C105.24 145.084 124.354 132.815 125.888 132.815C126.714 132.815 132.613 126.326 139.102 118.422C167.301 83.6202 201.282 56.3685 242.46 35.8412C250.247 31.9481 258.506 28.0549 260.748 27.2291C262.989 26.2853 270.659 23.218 277.856 20.2687C284.935 17.3194 291.896 14.842 293.194 14.842C295.2 14.842 298.622 13.7802 312.662 8.58939C315.848 7.40966 335.434 4.22439 349.828 2.45479C373.308 -0.494534 399.029 0.567224 422.981 5.40412C460.501 12.8364 462.507 13.4263 499.083 26.0494C519.613 33.1278 554.537 48.9362 565.156 56.1325C568.696 58.492 573.061 61.2054 574.713 62.1492C578.134 63.9187 589.107 71.705 602.676 81.8506C607.395 85.3898 614.829 91.9963 619.194 96.4793C623.56 100.962 629.813 106.979 633.117 109.692C638.072 113.703 646.449 122.669 662.26 140.719C663.558 142.135 666.153 145.91 668.277 149.213C670.283 152.516 674.412 158.769 677.362 163.134C686.919 177.291 696.24 196.52 701.904 214.334C703.319 218.463 705.207 224.244 706.151 227.193C707.095 230.143 709.219 239.463 710.989 247.839C713.82 261.76 714.056 265.889 714.292 292.668C714.528 335.375 712.522 353.543 704.853 381.974C701.432 394.479 701.432 396.013 704.381 404.035C706.859 410.524 707.685 413.355 714.056 437.185C722.433 469.038 725.737 545.721 720.192 582.292C717.124 602.112 712.051 621.341 706.151 634.436C703.083 641.161 700.252 647.649 699.662 648.947C699.072 650.245 697.42 653.902 696.004 657.087C694.706 660.39 691.403 665.699 688.925 669.002C686.329 672.424 684.323 675.491 684.323 675.963C684.323 680.328 654.709 710.883 650.579 710.883C649.989 710.883 648.337 712.181 646.685 713.714C640.786 719.377 614.593 732.118 597.602 737.663C588.517 740.612 579.314 743.679 577.073 744.623C571.527 747.101 522.562 749.342 514.303 747.572C511.118 746.865 506.398 746.275 504.038 746.275C501.679 746.275 494.599 745.213 488.464 743.915C465.692 739.078 464.866 738.96 462.507 740.612C461.445 741.438 457.433 744.505 453.658 747.454C449.882 750.404 445.988 753.235 444.926 753.943C443.864 754.533 436.431 759.37 428.29 764.679C392.894 787.801 358.913 799.245 319.152 801.486C293.43 802.902 286.115 803.138 285.407 802.43ZM329.18 772.819C347.351 770.577 367.409 764.679 385.697 756.067C392.068 753.117 410.71 741.438 424.397 731.764L431.712 726.573L426.756 724.45C416.491 720.085 383.927 703.451 380.269 700.737C378.263 699.204 376.022 697.906 375.432 697.906C374.842 697.906 370.948 695.546 366.819 692.715C362.689 689.884 356.672 686.226 353.368 684.457C350.182 682.687 345.935 680.092 343.929 678.676C342.041 677.261 337.322 673.839 333.664 671.008C326.939 666.053 326.939 666.053 316.556 666.053C292.368 666.053 257.916 662.986 235.97 659.093C221.694 656.497 193.613 648.121 177.566 641.633C161.756 635.262 138.866 622.875 125.416 613.555C121.286 610.606 117.983 608.718 117.983 609.19C117.983 611.668 125.534 637.268 128.601 645.408C135.681 663.93 148.423 689.53 155.149 698.496C164.942 711.591 166.829 713.832 179.1 725.865C192.315 738.96 201.872 745.803 216.502 752.645C255.556 771.285 291.07 777.538 329.18 772.819ZM562.914 718.433C585.568 713.36 588.163 712.534 607.041 703.804C610.935 701.917 619.784 696.844 626.509 692.361C671.699 662.514 697.066 602.82 697.302 525.665C697.302 504.548 695.768 485.672 691.403 455.235C690.459 449.101 686.919 436.006 686.211 436.006C686.093 436.006 683.615 441.196 680.784 447.567C677.952 453.82 674.766 460.308 673.587 461.96C672.525 463.611 669.693 470.572 667.451 477.532C661.316 495.818 652.703 514.458 642.91 530.266C640.432 534.277 638.308 538.052 638.308 538.406C638.308 540.53 612.823 579.933 605.154 589.607C602.676 592.674 599.136 597.983 597.131 601.404C595.243 604.825 592.647 608.718 591.467 610.016C590.287 611.314 587.692 614.499 585.804 617.094C582.382 621.695 573.415 633.021 572.235 634.2C569.521 636.914 555.599 653.43 552.767 657.205C548.284 663.34 512.651 698.968 501.915 708.169L493.537 715.248L499.555 716.664C522.68 722.208 543.8 722.798 562.914 718.433ZM463.686 702.035C465.928 700.383 467.934 698.732 468.288 698.26C468.642 697.67 471.12 695.546 473.715 693.305C491.06 678.676 523.978 646.823 531.175 637.74C533.535 634.79 536.839 630.897 538.609 628.892C540.378 627.004 543.328 623.347 545.216 620.869C546.986 618.392 551.233 613.201 554.537 609.426C557.841 605.651 562.088 600.342 564.094 597.747C565.982 595.033 568.696 591.612 570.111 589.96C573.179 586.421 580.376 576.158 589.579 562.237C593.237 556.692 596.895 551.855 597.485 551.383C598.192 550.911 598.31 550.44 597.72 550.44C597.248 550.44 592.175 554.569 586.512 559.641C576.955 568.371 563.386 578.989 552.767 586.067C550.171 587.837 544.862 591.494 540.968 594.207C531.529 600.696 518.315 608.718 512.651 611.432C510.056 612.611 503.802 616.386 498.611 619.808C493.537 623.111 488.818 625.942 488.346 625.942C487.874 625.942 481.503 628.774 474.069 632.313C460.029 639.037 425.34 650.717 410.592 653.784C405.755 654.728 398.793 656.261 395.254 657.205C391.714 658.031 385.933 659.093 382.629 659.565C379.207 660.036 376.14 660.744 375.904 661.216C375.432 661.924 392.894 672.778 409.412 681.979C417.553 686.58 438.555 696.726 439.853 696.726C440.443 696.726 444.926 698.614 449.646 700.855C454.483 703.097 458.731 704.866 459.085 704.984C459.439 704.984 461.445 703.686 463.686 702.035ZM292.368 634.2C285.053 627.83 260.158 602.466 256.5 597.511C254.966 595.387 252.135 592.202 250.365 590.55C248.595 588.899 245.881 585.831 244.229 583.59C241.162 579.461 229.953 565.894 220.868 555.394C217.918 551.973 213.907 546.9 212.019 544.187C210.013 541.474 204.939 534.985 200.81 529.794C196.562 524.603 191.489 518.233 189.483 515.755C187.477 513.16 184.882 509.975 183.82 508.677C171.431 493.577 172.257 494.638 157.862 475.527C152.435 468.448 143.704 457.241 138.63 450.752C133.439 444.264 128.129 437.539 126.832 435.77C125.534 434 121.994 429.281 118.926 425.388L113.263 418.074V426.214C113.145 430.579 112.673 436.596 112.083 439.545C110.195 448.393 108.19 517.761 109.133 540.53L109.959 561.647L117.157 568.607C131.905 582.41 149.485 594.443 173.437 606.595C190.545 615.443 193.495 616.622 216.502 624.173C237.976 631.251 262.989 635.852 296.144 638.801C297.088 638.801 295.436 636.796 292.368 634.2ZM356.554 635.262C372.6 632.785 395.844 628.184 403.513 625.942C450.826 611.668 461.209 607.421 492.593 589.371C505.454 582.056 538.727 559.995 548.284 552.445C567.87 537.227 595.479 513.396 605.272 503.368C616.48 491.925 619.902 487.914 630.639 473.639C636.066 466.207 650.579 442.14 652.231 437.775C652.939 435.888 654.591 431.287 656.006 427.748C659.428 418.782 663.912 401.204 665.563 390.232L666.979 381.03L661.67 371.121C650.343 350.003 630.757 323.341 610.581 301.516C607.749 298.567 603.738 294.084 601.614 291.489C587.574 274.972 547.812 235.569 534.243 224.834C513.713 208.672 500.381 198.88 495.543 196.52C492.593 194.987 488.11 192.391 485.396 190.622C482.8 188.734 477.491 185.667 473.597 183.779C469.822 181.774 463.45 178.589 459.557 176.583C455.663 174.577 451.888 172.926 451.298 172.926C450.59 172.926 445.634 170.802 440.325 168.207C435.133 165.611 430.414 163.488 429.942 163.488C428.998 163.488 415.312 158.297 409.884 155.82C407.878 154.876 403.277 153.342 399.737 152.399C396.079 151.455 391.596 149.921 389.826 148.977C384.163 146.028 367.998 142.253 321.511 132.579C305.347 129.276 301.453 128.804 275.968 128.45L248.005 127.86L241.162 134.113C237.268 137.534 232.431 142.607 230.425 145.32C228.301 148.034 226.177 150.511 225.705 150.747C225.115 150.865 220.868 155.584 216.03 161.129C211.311 166.673 205.765 173.044 203.642 175.403C201.636 177.763 199.04 181.184 197.978 183.072C196.798 184.959 194.321 188.616 192.315 191.212C188.303 196.52 173.437 220.587 173.437 221.767C173.437 222.239 172.139 224.598 170.487 227.075C168.953 229.671 167.301 233.092 166.829 234.744C166.475 236.395 165.414 238.283 164.47 239.109C163.526 239.817 162.818 241.468 162.818 242.53C162.818 243.71 162.464 244.889 161.992 245.125C160.34 245.833 147.833 272.259 144.766 281.461C143.822 284.41 141.108 292.197 138.748 298.921C136.389 305.527 134.501 312.016 134.501 313.196C134.501 314.493 134.029 315.673 133.321 315.909C132.731 316.145 131.787 319.212 131.079 322.752C130.489 326.291 128.601 334.313 127.068 340.448C125.416 346.582 123.528 354.604 122.938 358.143C122.23 361.683 121.168 367.227 120.578 370.531C119.752 374.542 119.752 377.137 120.578 378.789C121.758 380.912 131.905 394.479 133.321 395.895C133.675 396.249 139.338 403.327 145.71 411.821C152.199 420.197 158.806 428.809 160.458 430.933C169.425 442.376 175.207 449.691 175.796 450.162C176.15 450.516 179.336 454.527 182.876 459.01C186.297 463.611 189.601 467.504 190.191 467.622C190.663 467.858 191.135 468.566 191.135 469.156C191.135 470.218 205.057 488.858 209.187 493.223C210.485 494.52 212.845 497.47 214.496 499.711C216.266 501.953 218.036 504.076 218.39 504.43C218.744 504.784 223.464 510.565 228.773 517.407C237.858 528.85 246.589 539.468 249.539 542.653C250.247 543.361 252.842 546.546 255.202 549.732C268.181 566.838 300.156 600.578 320.331 618.392C343.575 638.919 340.861 637.622 356.554 635.262ZM84.946 448.393C85.7719 431.759 87.3057 415.007 88.6036 407.81C91.7893 390.468 91.6713 390.114 84.946 381.502C77.3948 372.064 54.9771 341.627 50.1396 334.313L46.482 328.768L45.1841 333.723C43.8862 338.678 41.7625 350.711 40.1106 362.862C38.5768 373.598 38.8128 400.142 40.7006 417.13C44.2402 449.455 57.4548 487.56 74.5631 514.458C76.0969 517.053 78.4567 521.3 79.7545 523.896L81.9963 528.615L82.8222 502.66C83.1762 488.386 84.238 463.965 84.946 448.393ZM102.054 328.768C105.476 312.842 110.549 295.264 115.623 281.461C117.747 275.916 119.87 269.9 120.46 267.894C121.05 266.007 123.174 260.344 125.18 255.507C127.186 250.67 129.309 245.597 129.781 244.3C132.495 237.693 147.007 208.436 149.131 205.368C150.547 203.481 153.497 198.408 155.621 194.397C161.992 182.246 178.746 158.179 187.359 148.741C197.86 137.298 197.86 137.18 186.769 144.258C183.348 146.382 180.28 148.151 179.926 148.151C179.454 148.151 176.15 150.511 172.375 153.342C168.717 156.174 163.644 159.595 161.284 161.011C156.8 163.488 146.772 171.392 139.456 178.235C137.097 180.358 132.967 183.779 130.371 185.667C122.348 191.448 101.346 213.273 96.6267 220.705C94.149 224.598 91.5533 228.373 90.9633 229.081C90.3734 229.789 88.9575 232.148 87.8957 234.272C86.7158 236.513 84.238 240.642 82.1143 243.71C74.917 254.327 64.8881 273.557 64.8881 276.86C64.8881 277.922 64.1801 279.691 63.4722 280.517C62.6463 281.343 61.1124 283.938 60.0506 286.18C57.8088 291.017 58.2807 292.315 66.0679 304.466C72.0853 313.668 73.8551 316.617 75.153 319.212C75.625 320.156 77.1588 322.28 78.6926 323.931C80.2265 325.583 85.0639 331.836 89.4295 337.734C98.5145 350.357 97.2167 351.301 102.054 328.768ZM673.822 309.067C673.822 264.827 671.699 250.67 659.546 214.098C654.355 198.762 648.809 186.493 641.258 174.106C635.241 164.196 626.981 151.455 625.448 149.685C624.74 148.859 624.15 147.916 624.15 147.68C624.15 147.09 620.374 141.663 613.295 132.461C604.682 121.136 589.461 110.99 568.224 102.614C562.324 100.254 555.127 97.3051 552.295 96.0074C547.93 94.0019 539.081 91.0525 525.63 86.8055C518.905 84.8 494.835 80.9068 480.205 79.6091C436.903 75.5981 397.377 77.4856 361.627 85.0359C340.743 89.4009 332.956 91.4065 329.063 93.0581C326.703 94.0019 321.983 95.1816 318.444 95.6535C310.538 96.7152 304.403 99.5466 306.881 100.962C307.825 101.552 312.544 102.732 317.382 103.676C377.319 115.709 399.265 121.372 419.677 130.102C421.801 130.927 427.582 133.169 432.656 135.056C455.427 143.433 462.035 146.5 487.874 159.713C492.357 162.072 508.168 171.628 512.061 174.459C513.713 175.639 519.259 179.296 524.45 182.6C529.642 185.903 537.783 191.801 542.502 195.813C547.34 199.824 552.885 204.307 554.891 205.958C563.504 212.919 609.755 258.574 621.318 271.669C625.801 276.624 632.999 284.528 637.246 289.129C644.326 296.562 658.838 315.437 668.867 330.184C670.991 333.369 672.997 335.611 673.233 335.375C673.587 335.139 673.822 323.223 673.822 309.067ZM184.646 109.81C200.22 106.389 208.597 104.266 216.502 101.552C221.104 100.018 228.537 97.659 233.021 96.2433C239.864 94.1198 243.167 92.1143 251.899 84.682C257.798 79.7271 263.107 75.0082 263.697 74.1824C264.405 73.3566 271.013 68.1658 278.446 62.739C285.879 57.1943 295.2 50.3518 299.094 47.4025C302.987 44.5712 308.179 41.032 310.656 39.6163C315.73 36.549 315.848 35.6052 310.774 37.2568C296.734 41.8578 281.985 47.0486 278.8 48.4643C276.794 49.4081 274.67 50.2339 274.08 50.2339C273.608 50.2339 269.125 52.3574 264.287 54.9528C259.45 57.5482 254.73 59.6717 254.022 59.6717C252.135 59.6717 230.661 71.469 221.458 77.6036C217.682 80.081 214.378 82.0866 214.142 82.0866C213.435 82.0866 198.096 92.7042 186.061 101.552C175.325 109.338 170.605 114.057 175.443 112.17C176.622 111.698 180.752 110.636 184.646 109.81ZM326.231 67.9298C329.534 67.222 334.49 65.8063 337.44 64.8625C351.244 60.1436 381.213 54.7168 402.333 52.9473C428.172 50.9417 463.333 50.7058 478.907 52.4753C485.042 53.3012 490.234 53.6551 490.47 53.4191C491.178 52.7113 441.623 36.431 434.19 35.0154C428.054 33.7177 427.228 33.8356 422.155 36.549C417.671 38.9085 414.368 39.4983 402.215 40.2062C386.877 41.1499 363.043 45.161 353.958 48.4643C345.345 51.5316 331.422 58.61 323.871 63.5648C314.668 69.6994 313.724 70.6432 317.382 69.8174C319.034 69.4635 323.045 68.5197 326.231 67.9298Z" fill="#F7F3E8"/>
</svg>
