<svg width="376" height="410" viewBox="0 0 376 410" fill="none" xmlns="http://www.w3.org/2000/svg">
<path d="M371 84.3651C371 128.197 289.068 163.73 188 163.73C86.9319 163.73 5 128.197 5 84.3651C5 40.533 86.9319 5 188 5C289.068 5 371 40.533 371 84.3651Z" fill="#FFF9F2"/>
<path d="M371 84.3651C371 128.197 289.068 163.73 188 163.73C86.9319 163.73 5 128.197 5 84.3651V164.184C5 208.016 86.9319 243.549 188 243.549C289.068 243.549 371 208.016 371 164.184V84.3651Z" fill="#FFF9F2"/>
<path d="M371 165.091C371 208.923 289.068 244.456 188 244.456C86.9319 244.456 5 208.923 5 165.091V244.909C5 288.741 86.9319 324.274 188 324.274C289.068 324.274 371 288.741 371 244.909V165.091Z" fill="#FFF9F2"/>
<path d="M371 245.816C371 289.648 289.068 325.181 188 325.181C86.9319 325.181 5 289.648 5 245.816V325.635C5 369.467 86.9319 405 188 405C289.068 405 371 369.467 371 325.635V245.816Z" fill="#FFF9F2"/>
<path d="M371 84.3651C371 128.197 289.068 163.73 188 163.73C86.9319 163.73 5 128.197 5 84.3651M371 84.3651C371 40.533 289.068 5 188 5C86.9319 5 5 40.533 5 84.3651M371 84.3651V164.184C371 208.016 289.068 243.549 188 243.549C86.9319 243.549 5 208.016 5 164.184V84.3651M371 245.816C371 289.648 289.068 325.181 188 325.181C86.9319 325.181 5 289.648 5 245.816V325.635C5 369.467 86.9319 405 188 405C289.068 405 371 369.467 371 325.635V245.816ZM371 165.091C371 208.923 289.068 244.456 188 244.456C86.9319 244.456 5 208.923 5 165.091V244.909C5 288.741 86.9319 324.274 188 324.274C289.068 324.274 371 288.741 371 244.909V165.091Z" stroke="#1C1C1C" stroke-width="10"/>
</svg>
