<svg width="479" height="411" viewBox="0 0 479 411" fill="none" xmlns="http://www.w3.org/2000/svg">
<path d="M421.795 300.084L240.076 405L58.3567 300.084V241.224L12 214.46C39.3315 202.866 48.642 192.177 58.3567 168.103L240.076 63.1875L421.795 168.103C434.902 193.916 445.475 203.298 468.151 214.46L421.795 241.224V300.084Z"/>
<path d="M421.795 168.103L240.076 63.1875L58.3567 168.103M421.795 168.103L240.076 273.019M421.795 168.103C434.902 193.916 445.475 203.298 468.151 214.46L286.298 319.453C262.328 311.217 251.609 301.501 240.076 273.231M240.076 405L421.795 300.084V241.224M240.076 405L58.3567 300.084V241.224M240.076 405V273.231M58.3567 168.103L240.076 273.019M58.3567 168.103C48.642 192.177 39.3315 202.866 12 214.46L193.854 319.453C218.924 305.616 227.948 294.837 240.076 273.231M240.076 273.019V273.231" stroke="#1C1C1C" stroke-width="10"/>
<path d="M241.382 198.577C231.069 98.5058 262.556 60.5198 329.274 16.2848M329.274 16.2848L268.047 5M329.274 16.2848L318.085 73.6653" stroke="#1C1C1C" stroke-width="10"/>
<path d="M241.382 198.577C231.069 98.5058 262.556 60.5198 329.274 16.2848M329.274 16.2848L268.047 5M329.274 16.2848L318.085 73.6653" stroke="#1C1C1C" stroke-width="10"/>
</svg>
