<svg width="1320" height="832" viewBox="0 0 1320 832" fill="none" xmlns="http://www.w3.org/2000/svg">
<path d="M314.602 530.606C314.357 530.66 314.113 530.723 313.87 530.794C313.631 530.881 313.393 530.975 313.157 531.078C312.926 531.196 312.698 531.322 312.472 531.455C312.252 531.604 312.036 531.76 311.824 531.924C311.619 532.102 311.418 532.287 311.221 532.48C311.034 532.686 310.852 532.899 310.674 533.119C310.507 533.352 310.345 533.591 310.189 533.837C310.045 534.095 309.907 534.358 309.776 534.628C309.657 534.908 309.545 535.194 309.44 535.485C309.349 535.786 309.265 536.091 309.189 536.401C309.128 536.72 309.075 537.043 309.029 537.369C309 537.703 308.979 538.041 308.966 538.381C308.971 538.728 308.983 539.076 309.005 539.428C309.044 539.784 309.092 540.141 309.149 540.501C309.224 540.863 309.309 541.226 309.403 541.59C309.515 541.955 309.636 542.32 309.768 542.685C309.918 543.05 310.077 543.414 310.246 543.778C310.434 544.139 310.632 544.498 310.839 544.856C311.065 545.21 311.301 545.561 311.546 545.911C311.811 546.254 312.084 546.594 312.367 546.93C312.669 547.26 312.98 547.585 313.301 547.905C313.639 548.217 313.986 548.524 314.343 548.825C314.717 549.116 315.1 549.401 315.491 549.68C315.9 549.946 316.317 550.206 316.742 550.459C317.183 550.697 317.632 550.929 318.088 551.153C318.56 551.361 319.039 551.561 319.525 551.752C320.026 551.927 320.533 552.092 321.046 552.249C321.573 552.387 322.105 552.515 322.644 552.634C323.194 552.733 323.749 552.821 324.309 552.899C324.879 552.957 325.454 553.003 326.033 553.039C326.621 553.052 327.212 553.054 327.807 553.045C328.408 553.012 329.013 552.968 329.62 552.912C330.232 552.832 330.845 552.74 331.461 552.636C332.08 552.507 332.699 552.365 333.32 552.212C333.941 552.032 334.563 551.84 335.184 551.636C335.804 551.406 336.423 551.162 337.042 550.906C337.657 550.625 338.27 550.33 338.881 550.022C339.487 549.688 340.089 549.341 340.689 548.982C341.281 548.596 341.869 548.197 342.453 547.786C343.027 547.349 343.597 546.899 344.161 546.437C344.713 545.949 345.259 545.449 345.799 544.936C346.326 544.398 346.845 543.849 347.356 543.287C347.852 542.701 348.34 542.104 348.819 541.495C349.28 540.863 349.732 540.219 350.175 539.565C350.598 538.888 351.011 538.201 351.413 537.503C351.794 536.784 352.164 536.055 352.522 535.316C352.857 534.558 353.179 533.791 353.49 533.014C353.775 532.22 354.048 531.417 354.307 530.606C354.539 529.778 354.758 528.943 354.963 528.101C355.139 527.244 355.301 526.38 355.449 525.51C355.567 524.627 355.669 523.739 355.757 522.845C355.813 521.941 355.854 521.032 355.878 520.119C355.871 519.197 355.848 518.273 355.808 517.344C355.735 516.41 355.645 515.474 355.539 514.535C355.398 513.593 355.241 512.65 355.066 511.706C354.857 510.76 354.631 509.815 354.387 508.87C354.109 507.927 353.813 506.985 353.499 506.045C353.15 505.108 352.784 504.175 352.399 503.244C351.98 502.32 351.543 501.4 351.088 500.484C350.599 499.577 350.091 498.676 349.567 497.78C349.007 496.896 348.43 496.019 347.836 495.148C347.208 494.292 346.562 493.445 345.9 492.605C345.204 491.782 344.491 490.969 343.762 490.165C343 489.382 342.222 488.608 341.429 487.846C340.603 487.105 339.762 486.377 338.906 485.661C338.019 484.969 337.117 484.291 336.201 483.625C335.256 482.987 334.297 482.364 333.324 481.754C332.324 481.174 331.311 480.61 330.285 480.061C329.233 479.544 328.17 479.044 327.094 478.56C325.995 478.11 324.885 477.677 323.764 477.262C322.622 476.883 321.47 476.523 320.309 476.181C319.128 475.877 317.939 475.592 316.742 475.326C315.528 475.1 314.306 474.894 313.078 474.708C311.836 474.563 310.588 474.439 309.334 474.335C308.069 474.274 306.799 474.235 305.525 474.217C304.243 474.242 302.959 474.289 301.67 474.358C300.377 474.471 299.083 474.607 297.787 474.765C296.489 474.968 295.191 475.194 293.893 475.443C292.596 475.737 291.301 476.054 290.008 476.393C288.719 476.779 287.433 477.187 286.15 477.619C284.875 478.096 283.605 478.596 282.34 479.119C281.086 479.688 279.839 480.28 278.597 480.894C277.371 481.554 276.152 482.236 274.941 482.94C273.748 483.69 272.565 484.461 271.391 485.254C270.239 486.092 269.097 486.951 267.968 487.831C266.862 488.754 265.769 489.698 264.689 490.663C263.636 491.67 262.598 492.696 261.574 493.743C260.581 494.83 259.604 495.936 258.642 497.061C257.715 498.225 256.804 499.407 255.911 500.607C255.054 501.843 254.217 503.096 253.397 504.367C252.618 505.672 251.858 506.992 251.118 508.329C250.42 509.697 249.744 511.08 249.089 512.478C248.478 513.904 247.89 515.344 247.324 516.797C246.805 518.277 246.31 519.768 245.838 521.271C245.415 522.797 245.017 524.333 244.643 525.88C244.32 527.446 244.022 529.022 243.75 530.606C243.53 532.206 243.337 533.813 243.17 535.428C243.057 537.055 242.97 538.688 242.911 540.326C242.907 541.973 242.93 543.624 242.981 545.278C243.088 546.938 243.223 548.599 243.386 550.262C243.605 551.926 243.853 553.591 244.129 555.255C244.463 556.917 244.825 558.576 245.215 560.234C245.663 561.885 246.139 563.532 246.644 565.175C247.206 566.808 247.797 568.434 248.416 570.055C249.092 571.661 249.796 573.259 250.529 574.849C251.317 576.421 252.134 577.983 252.978 579.534C253.878 581.064 254.805 582.581 255.76 584.087C256.769 585.566 257.804 587.031 258.866 588.482C259.981 589.904 261.122 591.309 262.289 592.699C263.507 594.055 264.749 595.393 266.017 596.713C267.334 597.996 268.675 599.259 270.039 600.503C271.451 601.705 272.885 602.887 274.342 604.047C275.843 605.162 277.365 606.255 278.909 607.325C280.494 608.346 282.1 609.344 283.725 610.317C285.389 611.239 287.071 612.134 288.772 613.004C290.508 613.82 292.26 614.609 294.03 615.37C295.831 616.075 297.647 616.751 299.478 617.398C301.337 617.986 303.209 618.545 305.095 619.073C307.005 619.54 308.925 619.977 310.857 620.382C312.81 620.724 314.771 621.034 316.742 621.313C318.728 621.526 320.722 621.707 322.722 621.855C324.734 621.937 326.752 621.985 328.774 622C330.803 621.948 332.835 621.861 334.869 621.741C336.906 621.553 338.944 621.33 340.982 621.073C343.018 620.748 345.052 620.388 347.084 619.993C349.109 619.53 351.13 619.032 353.147 618.499C355.153 617.898 357.152 617.262 359.144 616.592C361.12 615.853 363.088 615.08 365.046 614.274C366.984 613.399 368.91 612.491 370.825 611.549C372.714 610.54 374.59 609.498 376.452 608.424C378.284 607.284 380.1 606.111 381.9 604.907C383.666 603.638 385.413 602.339 387.142 601.008C388.832 599.615 390.501 598.192 392.15 596.739C393.756 595.227 395.339 593.685 396.9 592.115C398.413 590.488 399.901 588.833 401.364 587.15C402.776 585.414 404.162 583.652 405.52 581.864C406.824 580.025 408.099 578.161 409.345 576.274C410.532 574.339 411.689 572.382 412.815 570.402C413.879 568.379 414.911 566.335 415.911 564.27C416.845 562.166 417.746 560.044 418.613 557.903C419.412 555.727 420.175 553.534 420.904 551.326C421.562 549.086 422.183 546.833 422.768 544.565C423.279 542.271 423.754 539.966 424.19 537.649C424.551 535.31 424.874 532.963 425.159 530.606C425.366 528.233 425.534 525.853 425.663 523.466C425.713 521.069 425.724 518.667 425.695 516.261C425.586 513.85 425.437 511.437 425.247 509.022C424.977 506.607 424.667 504.193 424.316 501.78C423.885 499.373 423.412 496.969 422.9 494.569C422.306 492.18 421.672 489.797 420.997 487.421C420.242 485.06 419.447 482.709 418.612 480.368C417.696 478.048 416.742 475.739 415.747 473.443C414.674 471.174 413.562 468.92 412.41 466.68C411.182 464.473 409.915 462.283 408.61 460.111C407.23 457.976 405.812 455.861 404.358 453.766C402.83 451.714 401.266 449.685 399.667 447.678C397.996 445.72 396.292 443.786 394.552 441.877C392.745 440.022 390.905 438.193 389.032 436.393C387.094 434.649 385.126 432.936 383.126 431.253C381.065 429.631 378.974 428.042 376.855 426.484C374.678 424.993 372.474 423.536 370.243 422.114C367.959 420.761 365.649 419.445 363.315 418.165C360.932 416.959 358.527 415.791 356.099 414.66C353.627 413.608 351.135 412.595 348.622 411.622C346.072 410.729 343.503 409.878 340.916 409.067C338.297 408.341 335.662 407.656 333.012 407.015C330.335 406.459 327.645 405.947 324.943 405.479C322.218 405.099 319.485 404.763 316.742 404.472C313.982 404.271 311.216 404.116 308.444 404.006C305.661 403.987 302.875 404.014 300.086 404.088C297.292 404.253 294.498 404.466 291.703 404.724C288.91 405.076 286.12 405.474 283.332 405.918C280.553 406.456 277.78 407.041 275.012 407.672C272.259 408.395 269.514 409.166 266.779 409.982C264.064 410.891 261.361 411.846 258.67 412.846C256.007 413.938 253.358 415.075 250.724 416.257C248.124 417.529 245.541 418.846 242.977 420.206C240.452 421.655 237.948 423.147 235.465 424.682C233.028 426.302 230.614 427.965 228.225 429.67C225.887 431.457 223.576 433.285 221.291 435.153C219.064 437.101 216.866 439.088 214.698 441.114C212.592 443.216 210.519 445.354 208.478 447.53C206.505 449.778 204.566 452.061 202.663 454.379C200.832 456.765 199.039 459.183 197.283 461.634C195.604 464.149 193.965 466.694 192.366 469.269C190.848 471.902 189.372 474.563 187.939 477.253C186.591 479.995 185.287 482.762 184.026 485.554C182.855 488.393 181.73 491.255 180.651 494.139C179.665 497.065 178.725 500.01 177.834 502.975C177.038 505.974 176.291 508.99 175.592 512.023C174.992 515.084 174.442 518.159 173.943 521.246C173.543 524.356 173.195 527.476 172.898 530.606C172.704 533.752 172.561 536.904 172.47 540.062C172.483 543.23 172.548 546.401 172.665 549.574C172.888 552.75 173.163 555.926 173.49 559.101C173.923 562.271 174.409 565.438 174.948 568.6C175.592 571.751 176.288 574.894 177.037 578.03C177.892 581.147 178.798 584.253 179.756 587.348C180.819 590.418 181.933 593.473 183.099 596.513C184.367 599.52 187.056 605.482 187.056 605.482M187.056 605.482L147.013 578.03M187.056 605.482L204.131 565.175" stroke="#1C1C1C" stroke-width="4"/>
<path d="M663.578 68.6003C448.932 -13.5904 325.512 109.724 276.023 308.885M663.578 68.6003L630.618 1M663.578 68.6003L603.267 104.91" stroke="#1C1C1C" stroke-width="4"/>
<path d="M429.545 191.567C428.152 187.617 433.245 184.664 435.957 187.851L458.008 213.766C459.947 216.046 463.632 215.26 464.48 212.385L474.125 179.707C475.31 175.689 481.16 176.306 481.488 180.484L484.153 214.461C484.387 217.449 487.828 218.987 490.198 217.163L517.135 196.416C520.447 193.865 524.818 197.815 522.637 201.389L504.898 230.449C503.337 233.005 505.221 236.28 508.206 236.201L542.147 235.31C546.32 235.201 547.543 240.976 543.686 242.58L512.319 255.624C509.56 256.771 509.166 260.532 511.627 262.23L539.607 281.535C543.048 283.909 540.656 289.303 536.596 288.324L503.582 280.369C500.678 279.67 498.157 282.48 499.154 285.306L510.486 317.433C511.88 321.383 506.786 324.336 504.074 321.149L482.023 295.234C480.084 292.954 476.399 293.74 475.551 296.615L465.907 329.293C464.721 333.311 458.871 332.694 458.544 328.516L455.879 294.539C455.644 291.551 452.203 290.013 449.833 291.837L422.897 312.584C419.584 315.135 415.213 311.185 417.395 307.611L435.134 278.551C436.694 275.995 434.81 272.72 431.825 272.799L397.884 273.69C393.711 273.799 392.488 268.024 396.345 266.42L427.712 253.376C430.471 252.229 430.865 248.468 428.404 246.77L400.424 227.465C396.983 225.091 399.376 219.697 403.435 220.676L436.45 228.631C439.353 229.33 441.874 226.52 440.877 223.694L429.545 191.567Z" stroke="#1C1C1C" stroke-width="4"/>
<path d="M113.757 224.125C114.881 222.008 120.122 223.413 120.037 225.807C119.539 239.78 120.495 258.543 127.553 270.768C134.611 282.994 150.383 293.203 162.732 299.758C164.849 300.882 163.445 306.123 161.05 306.038C147.077 305.54 128.314 306.496 116.089 313.554C103.863 320.612 93.6538 336.384 87.0988 348.734C85.9754 350.85 80.7339 349.446 80.8193 347.051C81.3173 333.078 80.3615 314.315 73.3031 302.09C66.2447 289.864 50.4732 279.655 38.1236 273.1C36.0071 271.976 37.4115 266.735 39.8062 266.82C53.7787 267.318 72.542 266.362 84.7675 259.304C96.9929 252.246 107.202 236.474 113.757 224.125Z" stroke="#1C1C1C" stroke-width="4"/>
<path d="M224.954 15.3585C224.852 12.7889 228.304 11.8639 229.501 14.1402L241.636 37.2259C242.411 38.7012 244.413 38.9648 245.544 37.7405L263.241 18.5821C264.986 16.6931 268.081 18.4801 267.318 20.9358L259.574 45.8407C259.079 47.4322 260.309 49.0342 261.974 48.9682L288.034 47.9345C290.604 47.8326 291.529 51.285 289.253 52.4815L266.167 64.6165C264.692 65.392 264.428 67.394 265.652 68.5249L284.811 86.2215C286.7 87.9664 284.913 91.0617 282.457 90.2982L257.552 82.5548C255.961 82.06 254.359 83.2893 254.425 84.9547L255.458 111.015C255.56 113.585 252.108 114.51 250.911 112.233L238.776 89.1476C238.001 87.6723 235.999 87.4088 234.868 88.6331L217.172 107.791C215.427 109.68 212.331 107.893 213.095 105.438L220.838 80.5329C221.333 78.9414 220.104 77.3393 218.438 77.4054L192.378 78.439C189.808 78.541 188.883 75.0886 191.16 73.8921L214.245 61.757C215.721 60.9816 215.984 58.9795 214.76 57.8486L195.602 40.1521C193.712 38.4072 195.5 35.3119 197.955 36.0754L222.86 43.8187C224.452 44.3136 226.054 43.0843 225.988 41.4189L224.954 15.3585Z" stroke="#1C1C1C" stroke-width="4"/>
<circle cx="954.516" cy="467.5" r="181.25" stroke="#1C1C1C" stroke-width="4"/>
<circle cx="954.516" cy="467.5" r="226.562" stroke="#1C1C1C" stroke-width="4"/>
<circle cx="954.516" cy="467.5" r="271.875" stroke="#1C1C1C" stroke-width="4"/>
<circle cx="954.516" cy="467.5" r="317.188" stroke="#1C1C1C" stroke-width="4"/>
<circle cx="954.516" cy="467.5" r="362.5" stroke="#1C1C1C" stroke-width="4"/>
</svg>
