<svg width="1559" height="1440" viewBox="0 0 1559 1440" fill="none" xmlns="http://www.w3.org/2000/svg">
<path d="M371.8 428.46C365.738 427.358 362.064 420.928 362.064 411.928C362.064 405.131 363.35 402.743 371.984 393.008C382.27 381.619 386.679 371.883 389.985 354.065C392.924 338.268 392.373 337.901 362.248 337.901C330.47 337.901 329 337.166 329 320.634C329 310.531 329.551 308.877 333.225 307.041C335.429 305.938 350.492 304.469 366.656 303.55L396.047 302.081L395.496 291.978C395.129 286.467 392.741 276.915 390.353 270.67C385.209 257.628 384.474 242.382 388.883 237.973C392.557 234.299 416.62 233.932 421.58 237.422C423.417 238.708 427.458 248.076 430.764 257.995C438.112 280.038 441.051 286.467 443.623 286.467C444.725 286.467 454.093 282.426 464.38 277.466C481.83 268.833 483.3 267.731 487.341 259.465L491.75 250.648L505.894 250.097C518.936 249.546 520.405 249.913 524.63 254.138C531.61 261.118 530.876 272.139 522.793 283.344C515.813 292.713 504.424 301.897 494.321 306.122C490.831 307.592 483.851 310.714 478.891 313.286C473.748 315.674 468.605 317.695 467.502 317.695C466.217 317.695 464.747 318.429 464.196 319.348C462.543 321.919 477.422 341.942 490.096 353.882L502.22 365.454L501.301 374.639C500.016 388.048 496.342 391.171 482.565 391.171C473.564 391.171 469.89 390.252 464.38 386.578C460.706 384.007 457.583 381.251 457.583 380.333C457.583 377.945 432.601 359.943 429.295 359.943C427.274 359.943 426.356 361.597 426.356 364.719C426.356 369.495 419.008 392.824 414.049 404.029C412.395 407.519 406.885 414.867 401.741 420.194C393.108 429.011 392.006 429.746 384.107 429.562C379.515 429.378 374.004 428.827 371.8 428.46Z" fill="#000000"/>
<path d="M533.168 816.59C530.045 814.202 529.678 811.08 529.127 785.914C528.392 757.993 530.963 713.173 534.086 696.641C535.005 691.681 536.841 681.578 537.944 674.047C541.066 654.392 550.067 621.144 558.15 598.734C562.007 588.08 567.334 573.385 569.906 566.037C577.07 546.015 592.867 514.236 621.523 462.987C657.71 398.144 741.289 301.89 811.275 244.395C834.42 225.475 893.017 181.206 899.262 177.899C902.201 176.43 910.651 170.919 918.182 165.592C925.714 160.082 933.796 154.938 936.184 154.02C938.572 153.101 945.185 149.06 951.247 145.019C957.125 140.978 963.186 137.671 964.656 137.671C966.126 137.671 971.636 134.732 976.963 131.242C982.29 127.752 987.801 124.813 989.454 124.813C991.107 124.813 994.414 122.976 996.986 120.588C999.741 118.2 1005.44 114.71 1010.03 112.873C1014.62 110.853 1020.13 107.914 1022.52 106.26C1024.91 104.423 1029.87 102.035 1033.54 100.75C1037.21 99.6475 1041.99 97.2594 1044.01 95.6062C1047.87 92.2998 1051.54 90.4629 1065.13 85.3196C1069.73 83.6664 1075.6 81.0947 1078.36 79.6252C1080.93 78.1557 1084.79 77.0535 1086.81 77.0535C1089.01 77.0535 1091.22 76.3188 1091.77 75.2166C1092.32 74.2982 1094.34 73.3797 1095.99 73.3797C1097.65 73.196 1101.51 71.1754 1104.63 68.7875C1107.57 66.3995 1120.61 60.3377 1133.65 55.5617L1157.16 46.7446L1141 44.5403C1132.18 43.4382 1120.79 42.336 1116.02 42.336C1108.12 42.1523 1106.28 41.2339 1099.85 34.8048C1093.24 28.1919 1092.69 26.7224 1092.69 17.9052C1092.69 11.8435 1093.79 6.51643 1095.63 3.76107C1098.57 -0.280113 1099.48 -0.46378 1112.71 0.454671C1120.43 1.00574 1137.51 3.0264 1150.73 5.23068C1188.57 10.9251 1210.8 12.9457 1236.7 13.1293C1255.81 13.1293 1262.05 13.8641 1267.93 16.4357C1272.15 18.4563 1277.66 20.2933 1280.24 20.8444C1292.36 23.416 1297.5 49.1326 1288.13 60.3378C1285.56 63.4605 1281.89 66.0321 1280.05 66.0321C1278.22 66.0321 1275.83 67.3179 1274.54 68.7875C1273.26 70.257 1270.68 71.5428 1268.66 71.5428C1264.62 71.5428 1255.81 79.6252 1246.62 91.7487C1235.42 106.628 1233.03 112.506 1231.74 126.099C1229.54 148.142 1227.7 150.53 1210.8 150.53C1204 150.53 1202.72 149.795 1197.58 142.815C1192.98 136.569 1191.88 133.263 1191.88 125.731C1191.88 112.873 1198.31 88.8097 1204 80.1763C1206.58 76.3188 1208.23 72.6449 1207.68 72.0939C1206.39 70.808 1173.14 82.5642 1169.65 85.5032C1168.18 86.9727 1164.33 88.0749 1161.39 88.0749C1158.27 88.0749 1155.14 88.8097 1154.22 89.5444C1153.12 90.4629 1149.45 92.2998 1145.96 93.5856C1136.41 97.0758 1127.04 100.933 1123.55 102.954C1121.71 103.872 1119.32 104.607 1118.22 104.607C1117.3 104.607 1108.67 108.281 1099.48 112.689C1090.12 116.914 1077.99 122.425 1072.48 124.813C1066.97 127.017 1060.73 130.14 1058.71 131.426C1056.68 132.895 1053.93 133.997 1052.64 133.997C1051.36 133.997 1046.77 136.386 1042.54 139.325C1038.32 142.08 1031.15 146.305 1026.56 148.509C1014.44 154.387 1000.48 162.102 994.781 165.776C992.21 167.429 985.964 171.103 981.188 173.675C970.534 179.553 956.574 188.37 939.674 199.942C932.878 204.535 925.714 209.31 923.877 210.229C921.856 211.331 918.917 213.352 917.264 214.821C915.611 216.291 912.672 218.311 910.835 219.413C909.182 220.332 904.222 223.822 899.813 226.761C895.589 229.884 888.792 234.292 885.118 236.864C878.322 241.273 865.647 251.192 851.319 263.132C847.462 266.438 842.869 269.745 841.216 270.663C835.338 274.153 811.091 294.543 799.702 305.932C792.171 313.463 786.476 317.688 783.721 317.688C773.802 317.688 771.23 319.525 771.23 326.689C771.23 332.383 769.761 334.955 762.046 342.486C757.086 347.446 752.861 352.405 752.861 353.507C752.861 354.609 748.453 360.12 743.309 365.631C727.328 382.347 712.449 400.348 712.449 403.104C712.449 404.573 710.796 406.594 708.592 407.696C706.571 408.798 702.714 413.207 699.958 417.431C692.611 428.82 688.202 433.413 684.528 433.413C682.14 433.413 681.222 434.882 681.222 438.556C681.222 445.352 676.446 451.782 671.486 451.782C666.159 451.782 649.995 475.845 649.995 483.927C649.995 493.296 641.912 513.134 636.402 517.726C634.932 519.012 633.095 522.502 632.544 525.441C631.809 528.38 630.707 530.768 629.789 530.768C629.054 530.768 625.38 536.83 621.706 544.362C618.033 551.893 613.808 559.057 612.338 560.159C610.869 561.445 609.032 566.404 608.481 571.364C607.746 576.324 606.644 580.365 605.909 580.365C605.174 580.365 604.072 583.671 603.337 587.896C602.786 591.937 598.929 603.142 594.888 612.878C590.846 622.43 587.54 631.431 587.54 632.9C587.54 634.37 585.336 642.636 582.764 651.453C572.294 686.721 565.13 740.726 565.313 784.628L565.497 811.814L558.15 815.488C549.7 819.713 538.311 820.264 533.168 816.59Z" fill="#000000"/>
<path d="M526.782 1436.88C494.427 1428.31 465.62 1403.2 452.468 1372.03C447.876 1361.15 445.997 1317.64 449.337 1299.65C453.93 1275.8 466.663 1234.38 475.222 1216.6C481.693 1202.79 486.912 1195.47 498.602 1183.76C506.743 1175.6 516.345 1167.23 519.685 1165.56C541.395 1154.47 580.431 1152.8 599.009 1162.21C632.617 1179.15 640.55 1184.38 651.613 1197.14C668.731 1216.18 673.741 1232.29 672.279 1261.58C671.653 1277.48 670.609 1282.08 665.599 1290.86C658.085 1303.63 645.351 1318.48 637.836 1323.08C628.86 1328.73 604.854 1335.63 595.252 1335.63C575.838 1335.63 570.828 1333.54 565.401 1324.13C559.138 1313.67 558.512 1298.4 563.522 1290.66C566.653 1285.84 568.323 1285.43 581.474 1285.43C603.81 1285.43 613.204 1279.36 623.85 1258.44C630.739 1244.63 629.695 1239.19 617.796 1227.9C607.568 1218.06 576.464 1201.75 567.906 1201.75C558.095 1201.75 540.142 1211.79 530.749 1222.25C520.103 1234.38 513.631 1247.14 504.446 1273.71C482.111 1338.98 487.955 1370.78 525.948 1390.23C539.725 1397.14 540.977 1397.35 564.357 1397.35C587.319 1397.14 595.878 1395.88 619.675 1388.56C636.584 1383.33 644.725 1378.94 672.071 1361.57C685.222 1353 705.053 1331.66 714.238 1316.39C717.995 1309.9 723.631 1297.77 726.762 1289.19C737.409 1259.49 733.025 1209.07 715.699 1166.81C697.955 1123.09 678.542 1099.87 646.812 1084.6C593.999 1059.28 533.671 1054.89 477.727 1072.05C452.26 1079.79 423.035 1094.22 416.564 1101.96C414.894 1103.84 410.928 1105.94 407.588 1106.56C397.777 1108.86 373.979 1126.44 347.886 1150.7C320.958 1176.02 293.82 1210.11 275.242 1242.33L269.188 1252.79L279.208 1245.47C300.292 1230.41 299.457 1230.83 313.443 1231.45C329.516 1232.5 332.439 1235.22 334.109 1250.28C335.57 1264.92 333.065 1269.53 315.948 1283.54C294.864 1300.7 287.141 1308.23 275.242 1324.34C262.508 1340.86 249.149 1367.22 249.149 1375.38C249.149 1384.38 239.337 1392.12 228.065 1392.12C219.715 1392.12 217.628 1391.07 208.86 1382.07C203.433 1376.63 199.049 1370.57 199.049 1368.48C199.049 1366.59 196.127 1357.81 192.578 1348.81C189.029 1339.82 183.811 1324.96 181.097 1315.76C168.572 1274.34 160.64 1252.16 154.795 1242.54C149.994 1234.59 148.324 1228.94 147.489 1217.23C146.445 1203.84 146.862 1201.75 150.829 1197.77C154.377 1194.22 157.717 1193.38 167.528 1193.38C185.063 1193.38 189.656 1195.68 193.622 1206.35C198.005 1218.06 207.19 1248.19 210.113 1260.53L212.2 1270.36L220.968 1249.03C251.654 1172.46 326.803 1091.5 402.787 1053.85C433.472 1038.37 454.347 1031.46 490.252 1024.35C513.005 1019.75 587.11 1019.96 605.063 1024.56C640.759 1033.76 667.896 1044.22 680.212 1053.64C685.43 1057.4 693.363 1063.47 698.164 1066.82C727.389 1087.94 762.041 1158.03 770.182 1211.79C773.939 1237.31 773.939 1282.71 770.182 1302.58C764.963 1329.98 746.176 1363.04 725.719 1381.03C708.184 1396.3 695.033 1406.76 692.945 1406.76C691.902 1406.76 688.144 1408.85 684.595 1411.57C672.071 1420.78 637.627 1433.12 613.413 1437.3C590.659 1441.07 541.604 1440.86 526.782 1436.88Z" fill="#000000"/>
<path d="M1200.6 1122.69C1196.37 1118.1 1196.37 1118.1 1197.66 1084.67C1198.21 1066.12 1198.4 1029.38 1197.66 1003.11L1196.37 955.167L1184.43 972.801C1175.8 985.476 1171.03 994.844 1167.35 1006.6C1161.29 1026.07 1159.64 1028.09 1151.92 1028.09C1145.13 1028.09 1142.55 1030.48 1141.08 1037.83C1140.53 1040.58 1139.61 1044.81 1139.06 1047.38C1138.14 1051.6 1137.41 1051.97 1126.57 1051.97C1116.29 1051.97 1114.45 1051.42 1110.04 1046.83C1105.82 1042.42 1105.08 1040.03 1105.08 1031.4C1105.08 1016.89 1110.04 1006.42 1128.23 982.17C1132.45 976.659 1136.49 970.046 1137.23 967.474C1139.61 959.576 1147.51 939.37 1151.92 929.818C1154.31 924.858 1158.35 915.857 1160.92 909.796L1165.7 899.142L1160.56 902.448C1157.8 904.285 1151.92 907.775 1147.51 909.979C1143.1 912.367 1135.76 916.96 1131.16 920.266C1126.76 923.572 1117.57 929.818 1110.78 934.41C1087.81 950.024 1071.1 963.25 1063.75 971.332C1056.59 979.414 1056.4 979.414 1044.1 979.414C1032.52 979.414 1031.24 979.047 1025.91 973.536C1021.32 968.944 1019.85 965.821 1019.11 958.29C1018.2 947.636 1020.58 943.962 1034.73 934.594C1038.95 931.655 1048.5 923.94 1055.85 917.327C1072.2 902.632 1105.26 874.711 1114.82 867.547C1118.67 864.792 1121.61 862.22 1121.25 861.853C1120.88 861.485 1112.06 862.955 1101.41 864.792C1090.75 866.812 1071.47 870.486 1058.24 872.874C1008.83 882.058 996.703 884.997 991.56 889.039C990.458 889.957 984.764 890.324 978.885 889.957C969.334 889.039 967.864 888.304 959.598 879.67C952.25 871.772 950.781 869.2 950.781 863.322C950.781 857.628 952.067 854.872 956.843 850.28C962.17 845.137 964.19 844.402 972.824 844.402C978.334 844.402 987.886 843.116 993.948 841.463C1000.01 839.993 1008.09 837.973 1011.95 836.871C1015.81 835.952 1020.22 834.483 1022.05 833.381C1023.71 832.462 1033.81 829.523 1044.46 826.951C1055.12 824.196 1072.2 819.971 1082.49 817.399C1092.77 814.828 1100.86 812.072 1100.49 811.338C1100.12 810.603 1092.96 809.501 1084.69 808.766C1060.63 806.745 997.622 797.561 988.254 794.622C985.131 793.703 974.293 791.683 964.374 790.03C954.455 788.56 942.147 786.539 937.004 785.621C932.044 784.703 924.513 783.417 920.472 782.866C901.552 780.11 901.185 780.11 896.592 773.13C893.102 767.987 892 764.129 892 756.047C892 735.106 897.511 734.555 999.459 743.372C1010.66 744.291 1026.64 745.577 1035.28 746.128L1050.89 747.046L1038.95 742.638C1032.34 740.25 1023.71 736.943 1019.48 735.474C1011.4 732.351 991.927 723.901 987.519 721.513C973.007 713.798 955.741 702.777 954.087 700.389C953.353 699.287 952.618 693.776 952.618 688.082C952.618 673.937 956.843 669.896 972.456 669.896C978.518 669.896 984.029 670.631 984.764 671.549C985.315 672.468 994.867 676.325 1005.89 679.999C1016.91 683.673 1026.46 687.347 1027.01 688.265C1027.56 689.184 1031.05 690.837 1034.91 691.939C1040.79 693.776 1051.81 698.001 1089.28 712.329C1094.24 714.349 1098.65 715.635 1099.02 715.268C1101.22 712.88 1036.38 648.037 993.397 609.646C952.434 573.091 945.638 563.907 947.474 548.11C948.026 542.783 947.474 541.497 943.066 539.66C938.106 537.456 937.923 536.721 937.923 524.597C937.923 508.065 939.759 504.575 948.209 504.575H954.822L954.455 513.392C954.087 518.168 955.006 524.781 956.475 528.087C958.863 533.782 959.231 533.965 970.619 533.965H982.376L1001.11 552.702C1043.18 595.318 1088.73 632.607 1148.8 673.937C1158.53 680.55 1166.8 685.877 1167.17 685.694C1167.35 685.326 1163.49 679.081 1158.53 671.549C1153.57 664.018 1146.23 652.078 1142.19 644.914C1133.92 630.586 1124.37 617.544 1106 595.685L1093.88 580.99L1094.43 569.969C1094.98 559.682 1095.35 558.58 1101.22 554.722C1106 551.6 1110.04 550.498 1118.12 550.498C1128.59 550.498 1128.78 550.498 1137.96 560.968C1143.1 566.662 1152.29 578.786 1158.35 587.97C1164.41 597.155 1173.96 611.85 1179.84 620.667C1191.05 637.383 1219.34 671.917 1220.81 670.447C1221.91 669.529 1227.79 646.2 1229.99 634.995C1230.72 630.403 1232.75 620.116 1234.4 612.034C1236.05 603.951 1238.26 592.379 1239.17 586.317C1240.09 580.255 1242.85 563.172 1245.42 548.293C1250.93 517.617 1251.11 512.841 1247.99 493.002L1245.79 478.858L1252.03 472.429C1258.09 466.184 1258.46 466 1273.34 466C1283.08 466 1288.95 466.735 1290.24 468.388C1293.91 472.797 1294.65 484.369 1292.63 506.779C1291.53 519.27 1289.69 553.437 1288.77 582.643C1287.85 612.034 1286.57 640.873 1286.02 646.935L1284.91 657.956L1293 642.343C1297.22 633.709 1301.81 625.076 1303.1 623.055C1304.2 621.035 1308.06 613.687 1311.36 606.523C1314.85 599.543 1322.94 584.113 1329.55 572.54C1335.98 560.968 1343.88 545.722 1346.82 538.925C1353.25 523.862 1357.29 521.107 1373.82 521.107C1388.88 521.107 1391.64 523.679 1391.64 538.374C1391.64 547.191 1390.17 551.783 1382.45 567.581C1377.49 577.867 1369.23 597.522 1363.9 611.115C1358.76 624.708 1352.88 640.138 1351.04 645.098C1344.25 662.732 1327.35 720.962 1327.35 726.84C1327.35 735.657 1406.88 660.344 1436.27 623.606L1443.25 614.789H1460.52C1480.73 614.789 1481.65 615.524 1481.65 631.689C1481.46 643.445 1479.44 647.486 1469.34 656.119C1461.07 663.283 1412.03 716.186 1399.9 731.249C1394.21 738.229 1393.47 740.066 1396.23 739.331C1398.25 738.596 1406.15 736.576 1413.68 734.371C1421.21 732.351 1431.13 729.412 1435.54 727.759C1439.95 726.289 1445.28 725.003 1447.48 725.003C1449.68 725.003 1453.17 723.717 1455.19 722.248C1457.03 720.778 1460.15 719.493 1461.81 719.493C1463.64 719.493 1471.36 717.472 1479.07 714.9C1486.79 712.329 1496.71 710.308 1501.12 710.308C1510.49 710.308 1512.87 713.247 1512.87 725.554C1512.87 735.29 1507.91 742.454 1499.46 745.025C1488.26 748.516 1468.97 755.863 1460.89 759.721C1456.48 761.741 1451.52 763.578 1449.87 763.578C1448.21 763.578 1446.56 764.313 1446.01 765.231C1445.46 765.966 1441.05 767.803 1436.27 769.089C1431.31 770.558 1425.8 772.579 1423.78 773.681C1421.76 774.967 1416.25 777.171 1411.48 778.457C1406.52 779.743 1402.66 781.396 1402.66 781.947C1402.66 783.417 1444.91 791.683 1487.16 798.663C1504.79 801.602 1524.26 805.092 1530.51 806.745C1536.57 808.215 1545.02 809.501 1549.06 809.501C1558.06 809.501 1558.8 810.97 1558.8 826.584C1558.8 834.85 1557.69 839.259 1555.31 842.381C1552 846.79 1551.63 846.79 1530.14 845.688C1518.02 845.137 1500.38 843.667 1490.83 842.749C1481.28 841.647 1465.11 839.993 1455.01 838.891C1444.91 837.789 1423.05 835.401 1406.33 833.381C1389.62 831.36 1372.9 829.707 1369.04 829.707C1362.61 829.707 1362.25 830.074 1364.08 833.381C1369.59 843.851 1417.54 896.386 1427.82 903.55C1437.74 910.163 1443.07 920.45 1443.07 932.206C1443.07 944.146 1438.11 949.105 1425.8 949.105H1417.17L1423.6 955.351C1429.11 960.494 1430.21 962.698 1430.21 969.311C1430.21 974.087 1428.74 979.598 1426.35 983.272C1422.86 989.15 1421.95 989.517 1412.76 989.517C1403.39 989.517 1402.29 988.966 1395.86 981.986C1392 977.761 1382.64 969.495 1375.11 963.617C1367.57 957.739 1358.39 950.575 1355.08 947.82C1346.63 941.023 1348.29 943.595 1372.35 973.904C1420.48 1034.34 1421.03 1035.07 1421.03 1043.52C1421.03 1054.91 1415.7 1059.32 1401.92 1059.32C1392.92 1059.32 1390.17 1058.58 1385.21 1054.36C1381.9 1051.42 1374 1045.54 1367.57 1040.95C1355.08 1032.13 1325.14 1003.11 1309.71 984.925C1304.57 978.863 1297.96 970.965 1294.83 967.474C1291.89 963.984 1287.3 958.106 1284.91 954.432C1282.53 950.759 1274.26 940.105 1266.73 930.92L1252.95 914.204L1252.4 922.838C1251.48 943.227 1244.5 1034.15 1242.66 1051.97C1241.56 1062.63 1239.54 1075.3 1238.07 1080.26C1236.6 1085.22 1235.5 1094.22 1235.5 1100.1C1235.5 1111.49 1233.85 1116.26 1227.6 1123.24C1221.91 1129.31 1206.66 1129.12 1200.6 1122.69Z" fill="#000000"/>
<path d="M9.36816 844.586C1.28579 842.749 0 840.361 0 826.768C0 814.093 0.918496 812.991 13.5931 810.603C25.7167 808.582 37.6565 801.235 47.5758 790.03C56.3929 779.927 59.883 774.049 69.8023 751.822C72.0066 746.862 75.6804 738.596 78.0684 733.453C93.131 700.021 93.3146 699.103 91.8451 687.531C88.5387 661.63 76.5988 634.26 63.5568 623.239C51.4332 612.769 49.5964 610.748 49.5964 608.36C49.5964 607.258 47.0247 605.237 43.902 603.951C34.7175 600.094 33.0642 597.339 33.0642 585.582C33.0642 576.582 33.7989 574.377 37.1053 571.989C43.3508 567.581 59.6994 568.132 67.7817 573.091C74.5783 577.133 94.233 595.318 114.99 616.81L126.379 628.75H163.301H200.222L204.815 623.79C209.223 619.014 210.693 618.647 222.632 618.647C235.491 618.647 235.858 618.463 242.471 611.299C247.063 606.339 250.737 603.951 254.044 603.951C256.615 603.951 259.371 603.217 259.922 602.115C261.208 600.094 284.536 599.727 287.659 601.747C291.516 604.319 293.904 611.115 293.904 619.198C293.904 626.913 293.353 627.831 285.271 633.893C253.493 657.589 247.614 663.651 244.492 677.06C243.206 682.204 240.267 690.102 238.246 694.511C232.919 704.798 232.552 735.29 237.512 745.209C239.165 748.699 240.634 754.577 240.634 758.619C240.634 765.231 242.104 767.068 263.779 788.193C276.454 800.5 288.026 812.807 289.496 815.563C292.802 821.992 292.802 831.727 289.128 836.871C286.741 840.361 284.72 840.912 275.168 840.912H264.147L238.797 815.93C210.325 787.642 197.651 778.09 182.588 772.946C170.097 768.538 162.198 768.354 148.238 772.028C130.053 776.804 121.419 782.131 105.806 798.112C97.5395 806.562 86.7018 815.746 81.5585 818.685C76.5989 821.624 68.3328 827.87 63.3731 832.646C58.5972 837.422 51.8007 842.565 48.4943 843.851C41.8814 846.606 19.6548 846.974 9.36816 844.586Z" fill="#000000"/>
</svg>
