<svg width="774" height="408" viewBox="0 0 774 408" fill="none" xmlns="http://www.w3.org/2000/svg">
<ellipse cx="436.745" cy="122.919" rx="118.917" ry="118.919" fill="#FFF9F2" stroke="#1C1C1C" stroke-width="8"/>
<path d="M479.75 65.4141L440.61 131.654H474.063V136.337H439.94V151.392H474.063V156.075H439.94V180.162H434.588V156.075H400.465V151.392H434.588V136.337H400.465V131.654H433.919L394.945 65.4141H400.8L437.097 127.304H437.431L473.729 65.4141H479.75Z" fill="#21FFD3" stroke="#1C1C1C" stroke-width="4"/>
<ellipse cx="360.753" cy="285.084" rx="118.917" ry="118.919" fill="#FFF9F2" stroke="#1C1C1C" stroke-width="8"/>
<path d="M367.522 339.858C388.264 339.858 399.471 322.797 400.474 302.892H405.827C403.318 327.648 390.773 344.542 367.522 344.542C344.439 344.542 329.218 326.644 325.872 297.873H315V293.19H325.538C325.371 290.681 325.203 288.004 325.203 285.328C325.203 282.652 325.371 279.975 325.538 277.466H315V272.783H325.872C329.218 244.012 344.439 226.281 367.522 226.281C390.605 226.281 403.15 243.176 405.827 262.579H400.474C398.467 247.023 388.096 230.965 367.522 230.965C346.948 230.965 334.236 247.357 331.225 272.783H372.373V277.466H330.89C330.723 279.975 330.556 282.652 330.556 285.328C330.556 288.004 330.723 290.681 330.89 293.19H372.373V297.873H331.225C334.236 323.466 346.948 339.858 367.522 339.858Z" fill="#21FFD3" stroke="#1C1C1C" stroke-width="4"/>
<ellipse cx="650.488" cy="122.919" rx="118.917" ry="118.919" fill="#FFF9F2" stroke="#1C1C1C" stroke-width="8"/>
<path d="M691.47 149.703C691.47 166.096 679.259 180.147 654.336 180.816V193.194H648.984V180.649C624.73 179.478 610.177 165.092 608.672 142.176H614.024C615.53 161.245 626.402 174.794 648.984 175.965V122.438C627.908 119.762 613.355 109.057 613.355 93.1658C613.355 75.6023 628.577 64.2278 648.984 63.726V52.3516H654.336V63.8933C675.412 64.8969 686.953 75.2677 688.292 92.664H682.939C681.434 79.2822 674.074 69.5805 654.336 68.5769V118.256C682.604 122.271 691.47 132.307 691.47 149.703ZM618.708 93.1658C618.708 106.715 630.082 114.075 648.984 117.42V68.4096C630.751 68.9114 618.708 78.6132 618.708 93.1658ZM654.336 176.132C676.583 175.463 685.95 163.42 686.117 149.703C686.284 133.645 677.921 126.453 654.336 123.107V176.132Z" fill="#21FFD3" stroke="#1C1C1C" stroke-width="4"/>
<ellipse cx="122.917" cy="170.49" rx="118.917" ry="118.919" fill="#FFF9F2" stroke="#1C1C1C" stroke-width="8"/>
<path d="M159.316 215.715L162.327 219.395C157.476 224.413 151.956 229.933 141.419 229.933C128.706 229.933 122.015 219.562 110.641 219.562C103.449 219.562 94.9179 222.573 86.889 228.093L83.7109 223.911C93.4125 215.882 99.936 204.173 99.936 190.289C99.936 185.606 98.5978 181.089 96.9251 176.573H83.7109V172.224H95.0852C91.0707 163.359 86.22 154.159 86.22 143.119C86.22 129.403 97.4269 111.672 123.521 111.672C148.778 111.672 160.654 128.232 160.654 147.133H155.302C155.302 127.563 142.422 116.355 123.521 116.355C106.459 116.355 91.5725 126.224 91.5725 144.29C91.5725 154.828 96.7579 163.359 100.605 172.224H130.546V176.573H102.445C104.118 180.922 105.289 185.439 105.289 190.289C105.289 200.995 101.107 212.035 93.5798 219.562L93.747 219.896C98.096 217.22 104.787 214.878 110.641 214.878C123.521 214.878 131.55 225.249 141.419 225.249C149.447 225.249 154.131 220.9 159.316 215.715Z" fill="#21FFD3" stroke="#1C1C1C" stroke-width="4"/>
</svg>
