<svg width="1313" height="109" viewBox="0 0 1313 109" fill="none" xmlns="http://www.w3.org/2000/svg">
<path d="M1312 38.6959C1231.58 51.6054 1170.94 65.3226 1130.06 79.8473C1089.19 94.3721 1050.22 85.8062 1013.15 54.1498C976.087 22.4934 937.238 12.4704 896.604 24.0808C855.97 35.6912 815.865 40.8937 776.288 39.6883C736.711 38.4829 697.761 29.678 659.437 13.2738C621.114 -3.13049 580.996 2.22823 539.083 29.3499C497.17 56.4716 455.741 77.7224 414.796 93.1023C373.852 108.482 334.137 108.951 295.651 94.5093C257.166 80.0674 218.215 71.2719 178.798 68.123C139.382 64.974 100.137 59.7372 61.0651 52.4125C21.9928 45.0878 2.98503 35.0186 4.04174 22.2047" stroke="#1C1C1C" stroke-width="8"/>
</svg>
