<svg width="144" height="144" viewBox="0 0 144 144" fill="none" xmlns="http://www.w3.org/2000/svg">
<path d="M33.2244 11.5714C32.1324 8.05919 36.5594 5.50326 39.055 8.20505L64.3652 35.6059C65.9826 37.357 68.846 36.98 69.9551 34.87L87.311 1.85204C89.0223 -1.40361 93.96 -0.0805715 93.8142 3.59457L92.3359 40.8669C92.2414 43.2488 94.5327 45.0069 96.8089 44.2992L132.429 33.2244C135.941 32.1324 138.497 36.5594 135.795 39.0551L108.394 64.3652C106.643 65.9827 107.02 68.846 109.13 69.9551L142.148 87.311C145.404 89.0223 144.081 93.96 140.405 93.8142L103.133 92.3359C100.751 92.2414 98.993 94.5327 99.7008 96.8089L110.776 132.429C111.868 135.941 107.441 138.497 104.945 135.795L79.6348 108.394C78.0173 106.643 75.154 107.02 74.0448 109.13L56.689 142.148C54.9776 145.404 50.04 144.081 50.1857 140.405L51.6641 103.133C51.7586 100.751 49.4673 98.993 47.1911 99.7008L11.5714 110.776C8.05919 111.868 5.50326 107.441 8.20505 104.945L35.6059 79.6348C37.357 78.0173 36.98 75.154 34.87 74.0448L1.85204 56.689C-1.40361 54.9776 -0.0805718 50.04 3.59457 50.1858L40.8669 51.6641C43.2488 51.7586 45.0069 49.4673 44.2992 47.1911L33.2244 11.5714Z" fill="currentColor"/>
</svg>
