<svg width="203" height="206" viewBox="0 0 203 206" fill="none" xmlns="http://www.w3.org/2000/svg">
<path d="M47.6888 20.1755C45.8382 14.9491 52.603 11.0434 56.204 15.2592L85.4892 49.5453C88.065 52.5611 92.9586 51.5209 94.0851 47.7182L106.893 4.48493C108.468 -0.831107 116.236 -0.0145774 116.672 5.51273L120.211 50.4641C120.522 54.418 125.093 56.4528 128.239 54.0385L164.013 26.5904C168.412 23.2154 174.217 28.4422 171.32 33.1696L147.762 71.6165C145.689 74.9982 148.191 79.3308 152.156 79.2271L197.231 78.0484C202.773 77.9034 204.397 85.5441 199.275 87.666L157.617 104.923C153.953 106.441 153.43 111.416 156.699 113.663L193.858 139.204C198.427 142.344 195.25 149.48 189.859 148.186L146.014 137.661C142.157 136.736 138.81 140.454 140.134 144.192L155.184 186.697C157.034 191.923 150.269 195.829 146.668 191.613L117.383 157.327C114.807 154.311 109.914 155.351 108.787 159.154L95.9793 202.387C94.4044 207.703 86.6359 206.887 86.2007 201.36L82.6613 156.408C82.35 152.454 77.7797 150.42 74.6331 152.834L38.8594 180.282C34.4606 183.657 28.6557 178.43 31.5524 173.703L55.1108 135.256C57.183 131.874 54.6816 127.542 50.7168 127.645L5.64173 128.824C0.0992189 128.969 -1.52487 121.328 3.59742 119.206L45.255 101.95C48.9192 100.432 49.4421 95.4562 46.1736 93.2097L9.01426 67.6688C4.44508 64.5282 7.62221 57.3922 13.0135 58.6864L56.8585 69.211C60.7151 70.1367 64.0626 66.4189 62.7388 62.6802L47.6888 20.1755Z" fill="#21FFD3"/>
</svg>
