<svg width="151" height="151" viewBox="0 0 151 151" fill="none" xmlns="http://www.w3.org/2000/svg">
<path d="M29.7307 6.39642C28.7198 2.94717 35.9792 -1.24404 38.4608 1.35609C51.1569 14.6583 68.895 30.1106 86.2613 34.7639C103.628 39.4172 126.715 34.9041 144.362 29.7321C147.811 28.7212 152.002 35.9805 149.402 38.4622C136.1 51.1582 120.647 68.8964 115.994 86.2626C111.341 103.629 115.854 126.717 121.026 144.363C122.037 147.812 114.777 152.003 112.296 149.403C99.5997 136.101 81.8616 120.649 64.4953 115.995C47.1291 111.342 24.0412 115.855 6.39503 121.027C2.94579 122.038 -1.24543 114.779 1.3547 112.297C14.6569 99.6011 30.1092 81.863 34.7625 64.4967C39.4158 47.1305 34.9027 24.0426 29.7307 6.39642Z" fill="#21FFD3"/>
</svg>
