<svg width="129" height="129" viewBox="0 0 129 129" fill="none" xmlns="http://www.w3.org/2000/svg">
<path d="M61.2312 2.36908C61.7731 0.0349369 67.2269 0.034935 67.7688 2.36908C70.8642 15.7017 76.5248 33.0402 86.2423 42.7577C95.9598 52.4752 113.298 58.1358 126.631 61.2312C128.965 61.7731 128.965 67.2269 126.631 67.7688C113.298 70.8642 95.9598 76.5248 86.2423 86.2423C76.5248 95.9598 70.8642 113.298 67.7688 126.631C67.2269 128.965 61.7731 128.965 61.2312 126.631C58.1358 113.298 52.4752 95.9598 42.7577 86.2423C33.0402 76.5248 15.7017 70.8642 2.36908 67.7688C0.0349369 67.2269 0.034935 61.7731 2.36908 61.2312C15.7017 58.1358 33.0402 52.4752 42.7577 42.7577C52.4752 33.0402 58.1358 15.7017 61.2312 2.36908Z" fill="#21FFD3"/>
</svg>
